<?xml version="1.0" encoding="UTF-8"?>
<svg id="Layer_2" data-name="Layer 2" xmlns="http://www.w3.org/2000/svg" viewBox="0 0 96 96">
  <defs>
    <style>
      .cls-1 {
        fill: #fff;
      }

      .cls-2 {
        fill: #cef;
      }

      .cls-3 {
        opacity: 0;
      }

      .cls-4 {
        fill: #476475;
      }

      .cls-5 {
        fill: #96dbff;
      }
    </style>
  </defs>
  <g id="Exports">
    <g>
      <rect class="cls-3" width="96" height="96"/>
      <g>
        <g>
          <path class="cls-2" d="M62.01,49.39c0,12.87-4.74,17.76-14.01,17.76s-14.01-4.89-14.01-17.76,4.74-20.53,14.01-20.53,14.01,7.66,14.01,20.53Z"/>
          <ellipse class="cls-1" cx="48" cy="44.81" rx="10.19" ry="13.74"/>
          <path class="cls-5" d="M48,36.62c-1.54,0-2.78,1.25-2.78,2.78v5.81c0,1.54,1.25,2.78,2.78,2.78s2.78-1.25,2.78-2.78v-5.81c0-1.54-1.25-2.78-2.78-2.78Z"/>
        </g>
        <g>
          <path class="cls-1" d="M44.69,24.49c-1.19,0-2.25-.61-2.84-1.64s-.59-2.26,0-3.28l3.31-5.73c.59-1.03,1.66-1.64,2.84-1.64s2.25,.61,2.84,1.64l3.31,5.73c.59,1.03,.59,2.26,0,3.29s-1.66,1.64-2.84,1.64h-6.62Z"/>
          <path class="cls-4" d="M48,13.68c.6,0,1.2,.3,1.55,.89l3.31,5.73c.69,1.19-.17,2.68-1.55,2.68h-6.62c-1.37,0-2.23-1.49-1.55-2.68l3.31-5.73c.34-.59,.94-.89,1.55-.89m0-3c-1.7,0-3.29,.92-4.14,2.39l-3.31,5.73c-.85,1.48-.85,3.31,0,4.78,.85,1.48,2.44,2.39,4.14,2.39h6.62c1.7,0,3.29-.92,4.14-2.39s.85-3.31,0-4.78l-3.31-5.73c-.85-1.48-2.44-2.39-4.14-2.39h0Z"/>
        </g>
      </g>
    </g>
  </g>
</svg>