<?xml version="1.0" encoding="UTF-8"?>
<svg id="Layer_2" data-name="Layer 2" xmlns="http://www.w3.org/2000/svg" viewBox="0 0 96 96">
  <defs>
    <style>
      .cls-1 {
        fill: #fff;
      }

      .cls-2 {
        fill: #cef;
      }

      .cls-3 {
        opacity: 0;
      }

      .cls-4 {
        fill: #476475;
      }

      .cls-5 {
        fill: #96dbff;
      }
    </style>
  </defs>
  <g id="Exports">
    <g>
      <rect class="cls-3" width="96" height="96"/>
      <g>
        <g>
          <path class="cls-2" d="M62.01,49.39c0,12.87-4.74,17.76-14.01,17.76s-14.01-4.89-14.01-17.76,4.74-20.53,14.01-20.53,14.01,7.66,14.01,20.53Z"/>
          <ellipse class="cls-1" cx="48" cy="44.81" rx="10.19" ry="13.74"/>
          <path class="cls-5" d="M48,36.62c-1.54,0-2.78,1.25-2.78,2.78v5.81c0,1.54,1.25,2.78,2.78,2.78s2.78-1.25,2.78-2.78v-5.81c0-1.54-1.25-2.78-2.78-2.78Z"/>
        </g>
        <g>
          <path class="cls-1" d="M22.2,54.6c-.57,0-1.14-.15-1.64-.44l-5.73-3.31c-1.03-.59-1.64-1.66-1.64-2.84s.61-2.25,1.64-2.84l5.73-3.31c.5-.29,1.07-.44,1.64-.44,1.81,0,3.29,1.47,3.29,3.29v6.62c0,.9-.36,1.75-1.01,2.37-.62,.59-1.43,.92-2.28,.92h0Z"/>
          <path class="cls-4" d="M22.2,42.9c.93,0,1.79,.75,1.79,1.79v6.62c0,1.04-.86,1.79-1.79,1.79-.3,0-.6-.08-.89-.24l-5.73-3.31c-1.19-.69-1.19-2.4,0-3.09l5.73-3.31c.29-.17,.59-.24,.89-.24m0-3c-.83,0-1.66,.22-2.39,.64l-5.73,3.31c-1.48,.85-2.39,2.44-2.39,4.14s.92,3.29,2.39,4.14l5.73,3.31c.73,.42,1.56,.64,2.39,.64,2.64,0,4.79-2.15,4.79-4.79v-6.62c0-2.64-2.15-4.79-4.79-4.79h0Z"/>
        </g>
        <g>
          <path class="cls-1" d="M69.8,54.6c-1.81,0-3.29-1.47-3.29-3.29v-6.62c0-1.81,1.47-3.29,3.29-3.29,.57,0,1.14,.15,1.64,.44l5.73,3.31c1.03,.59,1.64,1.66,1.64,2.84s-.61,2.25-1.64,2.84l-5.73,3.31c-.5,.29-1.07,.44-1.64,.44h0Z"/>
          <path class="cls-4" d="M69.8,42.9c.3,0,.6,.08,.89,.24l5.73,3.31c1.19,.69,1.19,2.4,0,3.09l-5.73,3.31c-.29,.17-.59,.24-.89,.24-.93,0-1.79-.75-1.79-1.79v-6.62c0-1.04,.86-1.79,1.79-1.79m0-3c-2.64,0-4.79,2.15-4.79,4.79v6.62c0,2.64,2.15,4.79,4.79,4.79,.83,0,1.66-.22,2.39-.64l5.73-3.31c1.48-.85,2.39-2.44,2.39-4.14s-.92-3.29-2.39-4.14l-5.73-3.31c-.73-.42-1.56-.64-2.39-.64h0Z"/>
        </g>
      </g>
    </g>
  </g>
</svg>