<?xml version="1.0" encoding="UTF-8"?>
<svg id="Layer_2" data-name="Layer 2" xmlns="http://www.w3.org/2000/svg" viewBox="0 0 96 96">
  <defs>
    <style>
      .cls-1 {
        fill: #fff;
      }

      .cls-2 {
        fill: #cef;
      }

      .cls-3 {
        opacity: 0;
      }

      .cls-4 {
        fill: #476475;
      }

      .cls-5 {
        fill: #96dbff;
      }
    </style>
  </defs>
  <g id="Exports">
    <g>
      <rect class="cls-3" width="96" height="96"/>
      <g>
        <g>
          <path class="cls-2" d="M62.01,49.39c0,12.87-4.74,17.76-14.01,17.76s-14.01-4.89-14.01-17.76,4.74-20.53,14.01-20.53,14.01,7.66,14.01,20.53Z"/>
          <ellipse class="cls-1" cx="48" cy="44.81" rx="10.19" ry="13.74"/>
          <path class="cls-5" d="M48,36.62c-1.54,0-2.78,1.25-2.78,2.78v5.81c0,1.54,1.25,2.78,2.78,2.78s2.78-1.25,2.78-2.78v-5.81c0-1.54-1.25-2.78-2.78-2.78Z"/>
        </g>
        <g>
          <path class="cls-1" d="M68.11,35.85c-.87,0-1.69-.34-2.32-.96l-4.68-4.68c-.84-.84-1.16-2.03-.85-3.17s1.18-2.02,2.32-2.32l6.4-1.71c.28-.08,.57-.11,.86-.11,1.01,0,1.98,.48,2.6,1.29,.62,.81,.83,1.85,.56,2.85l-1.71,6.4c-.38,1.43-1.69,2.44-3.18,2.44h0Z"/>
          <path class="cls-4" d="M69.84,24.38c1.13,0,2.03,1.08,1.72,2.25l-1.71,6.4c-.22,.84-.97,1.32-1.73,1.32-.45,0-.9-.17-1.26-.52l-4.68-4.68c-.97-.97-.53-2.63,.8-2.99l6.4-1.71c.16-.04,.32-.06,.47-.06m0-3c-.42,0-.84,.06-1.25,.16l-6.4,1.71c-1.65,.44-2.94,1.74-3.38,3.38-.44,1.65,.03,3.42,1.24,4.62l4.68,4.68c.9,.9,2.1,1.4,3.38,1.4,2.17,0,4.07-1.46,4.63-3.55l1.71-6.4c.39-1.45,.09-2.96-.82-4.15-.9-1.18-2.32-1.88-3.79-1.88h0Z"/>
        </g>
        <g>
          <path class="cls-1" d="M26.16,73.12c-1.01,0-1.98-.48-2.6-1.29-.62-.81-.83-1.85-.56-2.85l1.71-6.4c.38-1.43,1.69-2.44,3.18-2.44,.87,0,1.69,.34,2.32,.96l4.68,4.68c.84,.84,1.16,2.03,.85,3.17s-1.18,2.02-2.32,2.32l-6.4,1.71c-.28,.08-.57,.11-.86,.11h0Z"/>
          <path class="cls-4" d="M27.89,61.65c.45,0,.9,.17,1.26,.52l4.68,4.68c.97,.97,.53,2.63-.8,2.99l-6.4,1.71c-.16,.04-.32,.06-.47,.06-1.13,0-2.03-1.08-1.72-2.25l1.71-6.4c.22-.84,.97-1.32,1.73-1.32m0-3c-2.17,0-4.07,1.46-4.63,3.55l-1.71,6.4c-.39,1.45-.09,2.96,.82,4.15,.9,1.18,2.32,1.88,3.79,1.88,.42,0,.84-.06,1.25-.16l6.4-1.71c1.65-.44,2.94-1.74,3.38-3.38,.44-1.65-.03-3.42-1.24-4.62l-4.68-4.68c-.9-.9-2.1-1.4-3.38-1.4h0Z"/>
        </g>
        <g>
          <path class="cls-1" d="M27.89,35.85c-1.49,0-2.79-1-3.18-2.44l-1.71-6.4c-.27-.99-.06-2.03,.56-2.85,.62-.81,1.59-1.29,2.6-1.29,.29,0,.58,.04,.86,.11l6.4,1.71c1.15,.31,2.02,1.18,2.32,2.32s-.01,2.33-.85,3.17l-4.68,4.68c-.62,.62-1.44,.96-2.32,.96h0Z"/>
          <path class="cls-4" d="M26.16,24.38c.15,0,.31,.02,.47,.06l6.4,1.71c1.33,.36,1.77,2.01,.8,2.99l-4.68,4.68c-.36,.36-.81,.52-1.26,.52-.76,0-1.51-.49-1.73-1.32l-1.71-6.4c-.31-1.17,.59-2.25,1.72-2.25m0-3c-1.47,0-2.89,.7-3.79,1.88-.91,1.19-1.21,2.7-.82,4.15l1.71,6.4c.56,2.09,2.46,3.55,4.63,3.55,1.27,0,2.47-.5,3.38-1.4l4.68-4.68c1.2-1.21,1.68-2.98,1.24-4.62-.44-1.65-1.74-2.94-3.38-3.38l-6.4-1.71c-.41-.11-.83-.16-1.25-.16h0Z"/>
        </g>
        <g>
          <path class="cls-1" d="M69.84,73.12c-.29,0-.58-.04-.86-.11l-6.4-1.71c-1.15-.31-2.01-1.18-2.32-2.32s.01-2.33,.85-3.17l4.68-4.68c.62-.62,1.44-.96,2.32-.96,1.49,0,2.8,1,3.18,2.44l1.71,6.4c.27,.99,.06,2.03-.56,2.85-.62,.81-1.59,1.29-2.6,1.29h0Z"/>
          <path class="cls-4" d="M68.11,61.65c.76,0,1.51,.49,1.73,1.32l1.71,6.4c.31,1.17-.59,2.25-1.72,2.25-.15,0-.31-.02-.47-.06l-6.4-1.71c-1.33-.36-1.77-2.01-.8-2.99l4.68-4.68c.36-.36,.81-.52,1.26-.52m0-3c-1.27,0-2.47,.5-3.38,1.4l-4.68,4.68c-1.2,1.2-1.68,2.98-1.24,4.62,.44,1.65,1.74,2.94,3.38,3.38l6.4,1.71c.41,.11,.83,.16,1.25,.16,1.47,0,2.89-.7,3.79-1.88,.91-1.19,1.21-2.7,.82-4.15l-1.71-6.4c-.56-2.09-2.46-3.55-4.63-3.55h0Z"/>
        </g>
      </g>
    </g>
  </g>
</svg>