<?xml version="1.0" encoding="UTF-8"?>
<svg id="Layer_2" data-name="Layer 2" xmlns="http://www.w3.org/2000/svg" viewBox="0 0 96 96">
  <defs>
    <style>
      .cls-1 {
        fill: #fff;
      }

      .cls-2 {
        fill: #cef;
      }

      .cls-3 {
        opacity: 0;
      }

      .cls-4 {
        fill: #476475;
      }

      .cls-5 {
        fill: #e62e49;
      }
    </style>
  </defs>
  <g id="Exports">
    <g>
      <rect class="cls-3" width="96" height="96"/>
      <g>
        <g>
          <path class="cls-2" d="M68.13,49.99c0,18.49-6.81,25.51-20.13,25.51s-20.13-7.02-20.13-25.51,6.81-29.49,20.13-29.49,20.13,11,20.13,29.49Z"/>
          <ellipse class="cls-1" cx="48" cy="43.42" rx="14.64" ry="19.73"/>
          <path class="cls-5" d="M48,31.66c-2.21,0-4,1.79-4,4v8.35c0,2.21,1.79,4,4,4s4-1.79,4-4v-8.35c0-2.21-1.79-4-4-4Z"/>
        </g>
        <g>
          <path class="cls-1" d="M48,64.8c-1.19,0-2.25-.61-2.84-1.64l-3.31-5.73c-.59-1.03-.59-2.26,0-3.29,.59-1.03,1.66-1.64,2.84-1.64h6.62c1.19,0,2.25,.61,2.84,1.64,.59,1.03,.59,2.26,0,3.28l-3.31,5.73c-.59,1.03-1.66,1.64-2.84,1.64Z"/>
          <path class="cls-4" d="M51.31,54c1.37,0,2.23,1.49,1.55,2.68l-3.31,5.73c-.34,.59-.94,.89-1.55,.89s-1.2-.3-1.55-.89l-3.31-5.73c-.69-1.19,.17-2.68,1.55-2.68h6.62m0-3h-6.62c-1.7,0-3.29,.92-4.14,2.39-.85,1.48-.85,3.31,0,4.78l3.31,5.73c.85,1.48,2.44,2.39,4.14,2.39s3.29-.92,4.14-2.39l3.31-5.73c.85-1.48,.85-3.31,0-4.78s-2.44-2.39-4.14-2.39h0Z"/>
        </g>
      </g>
    </g>
  </g>
</svg>