<?xml version="1.0" encoding="UTF-8"?>
<svg id="Layer_2" data-name="Layer 2" xmlns="http://www.w3.org/2000/svg" viewBox="0 0 96 96">
  <defs>
    <style>
      .cls-1 {
        opacity: 0;
      }

      .cls-2 {
        fill: #1a1a1a;
      }
    </style>
  </defs>
  <g id="Exports">
    <g>
      <rect class="cls-1" width="96" height="96"/>
      <path class="cls-2" d="M48,20.5h0s0,0,0,0c0,0,0,0,0,0-.6,0-1.19,.03-1.77,.08-.12,0-.24,.02-.35,.03-.56,.05-1.1,.12-1.63,.22-.1,.02-.19,.04-.29,.06-.5,.1-.99,.21-1.46,.34-.06,.02-.12,.03-.18,.05-.51,.15-.99,.32-1.47,.51-.1,.04-.2,.08-.3,.12-.47,.2-.94,.41-1.38,.65-.05,.03-.11,.06-.16,.09-.42,.23-.82,.48-1.22,.74-.07,.05-.14,.09-.21,.14-.41,.29-.81,.59-1.2,.92-.08,.07-.15,.13-.23,.2-.39,.34-.78,.7-1.14,1.08,0,0,0,0,0,0-.36,.38-.71,.79-1.05,1.21-.06,.08-.13,.16-.19,.23-.32,.42-.64,.86-.93,1.32-.05,.08-.1,.15-.15,.23-.28,.45-.56,.92-.82,1.4-.02,.04-.04,.08-.06,.12-.27,.51-.52,1.04-.77,1.59-.05,.1-.09,.21-.14,.31-.24,.55-.46,1.12-.67,1.71-.02,.06-.04,.13-.06,.19-.2,.57-.38,1.15-.55,1.75-.02,.09-.05,.17-.07,.26-.17,.63-.33,1.28-.48,1.94-.03,.12-.05,.24-.08,.37-.15,.69-.28,1.38-.4,2.1,0,0,0,0,0,0h0c-.47,2.9-.71,6.09-.71,9.54,0,18.49,6.81,25.51,20.13,25.51s20.13-7.02,20.13-25.51-6.81-29.49-20.13-29.49Zm0,51c-9.68,0-16.13-3.66-16.13-21.51,0-3.26,.22-6.69,.83-9.94,2.97-.25,6.08-.43,9.35-.52,1.08-.03,1.95-.91,1.95-2v-1.88c0-1.73,1.1-3.21,2.65-3.76,.78-.28,1.35-.97,1.35-1.8v-5.59h0c13.33,0,16.13,13.86,16.13,25.49,0,17.85-6.45,21.51-16.13,21.51Z"/>
    </g>
  </g>
</svg>