<?xml version="1.0" encoding="UTF-8"?>
<svg id="Layer_2" data-name="Layer 2" xmlns="http://www.w3.org/2000/svg" viewBox="0 0 96 96">
  <defs>
    <style>
      .cls-1 {
        opacity: 0;
      }

      .cls-2 {
        fill: #1a1a1a;
      }
    </style>
  </defs>
  <g id="Exports">
    <g>
      <rect class="cls-1" width="96" height="96"/>
      <path class="cls-2" d="M67.42,40.45h0s0,0,0,0c-.12-.72-.25-1.42-.4-2.1-.03-.12-.05-.25-.08-.37-.15-.66-.31-1.31-.48-1.94-.02-.09-.05-.17-.08-.26-.17-.6-.35-1.18-.55-1.74-.02-.06-.04-.13-.06-.19-.21-.59-.43-1.15-.67-1.71-.04-.11-.09-.21-.14-.31-.24-.55-.49-1.08-.76-1.59-.02-.04-.04-.08-.07-.12-.26-.48-.53-.95-.82-1.4-.05-.08-.1-.16-.15-.23-.3-.46-.61-.89-.93-1.31-.06-.08-.12-.16-.19-.24-.34-.42-.68-.83-1.05-1.21,0,0,0,0,0,0-.36-.38-.75-.74-1.14-1.08-.08-.07-.15-.13-.23-.2-.39-.33-.79-.63-1.2-.92-.07-.05-.14-.09-.21-.14-.39-.26-.8-.51-1.22-.74-.05-.03-.11-.06-.16-.09-.45-.24-.91-.45-1.38-.65-.1-.04-.2-.08-.31-.12-.48-.19-.97-.36-1.47-.51-.06-.02-.12-.03-.18-.05-.48-.13-.96-.25-1.46-.34-.1-.02-.19-.04-.29-.06-.53-.09-1.07-.17-1.63-.22-.12-.01-.23-.02-.35-.03-.58-.05-1.16-.08-1.77-.08,0,0,0,0,0,0h0c-13.32,0-20.13,11-20.13,29.49s6.81,25.51,20.13,25.51,20.13-7.02,20.13-25.51c0-3.45-.24-6.63-.71-9.54Zm-19.42,31.05c-9.68,0-16.13-3.66-16.13-21.51,0-11.63,2.8-25.49,16.13-25.49h0v5.59c0,.83,.56,1.52,1.35,1.8,1.54,.55,2.65,2.03,2.65,3.76v1.88c0,1.09,.87,1.97,1.95,2,3.27,.09,6.38,.27,9.35,.52,.61,3.25,.83,6.68,.83,9.94,0,17.85-6.45,21.51-16.13,21.51Z"/>
    </g>
  </g>
</svg>