# Blender 4.3.2
# www.blender.org
mtllib TentScraps_Yellow.mtl
g TentScraps_Cube.077
v -12.145429 -0.405149 0.370926
v -12.034635 -0.363781 0.763683
v -11.990003 -0.415249 1.074928
v -12.110425 -0.385913 0.565500
v -12.097180 -0.383113 0.649416
v -11.794599 -0.404081 0.926529
v -12.103986 -0.397465 0.353161
v -9.959729 -0.379648 0.012377
v -9.961354 -0.367294 0.811453
v -9.820279 -0.379648 0.492855
v -9.746438 -0.401043 0.932346
v -9.722009 -0.379648 0.872334
v -9.849824 -0.377527 0.770922
v -12.149327 -0.434752 0.373837
v -12.026296 -0.392584 0.762726
v -11.975659 -0.441345 1.071308
v -12.093083 -0.410036 0.561308
v -12.119657 -0.402532 0.653610
v -11.795278 -0.434066 0.927204
v -12.106748 -0.427277 0.355061
v -9.959691 -0.409648 0.012463
v -9.961900 -0.397288 0.811621
v -9.821816 -0.409609 0.492981
v -9.745679 -0.430991 0.930761
v -9.721250 -0.409597 0.870747
v -9.850236 -0.407516 0.770210
vn -0.7132 0.4533 -0.5348
vn -0.1422 0.9695 0.1995
vn -0.0700 0.9411 0.3309
vn -0.8964 0.4257 0.1234
vn -0.3099 0.9502 -0.0340
vn -0.2139 0.6138 0.7600
vn -0.1229 0.6705 -0.7316
vn 0.4413 0.5670 -0.6955
vn 0.1605 0.6889 0.7068
vn 0.7086 0.6800 -0.1883
vn 0.1439 0.4812 0.8647
vn 0.7329 0.6771 0.0660
vn -0.1206 0.8674 0.4827
vn -0.7187 -0.6688 -0.1903
vn 0.4844 -0.8339 0.2647
vn 0.0684 0.9094 0.4103
vn -0.2476 -0.9646 -0.0908
vn -0.8546 -0.5118 0.0884
vn -0.2063 -0.6674 0.7155
vn -0.2869 -0.6773 -0.6774
vn 0.4292 -0.6006 -0.6745
vn 0.1422 -0.6629 0.7351
vn 0.6594 -0.7276 -0.1889
vn -0.0048 -0.6226 0.7825
vn 0.8063 -0.5904 0.0371
vn -0.1857 -0.8847 0.4276
vt 0.512282 0.563176
vt 0.523454 0.564046
vt 0.516732 0.564090
vt 0.508045 0.563108
vt 0.930656 0.705299
vt 0.930479 0.714709
vt 0.930479 0.703491
vt 0.520974 0.568655
vt 0.507810 0.564034
vt 0.524707 0.607700
vt 0.507810 0.610418
vt 0.524222 0.610201
vt 0.518440 0.611756
vt 0.527979 0.611869
vt 0.526796 0.612562
vt 0.856577 0.907253
vt 0.856038 0.903085
vt 0.856947 0.911762
vt 0.856038 0.918459
vt 0.930479 0.496308
vt 0.931499 0.494517
vt 0.931499 0.505720
vt 0.617186 0.074273
vt 0.617439 0.075216
vt 0.604289 0.079863
vt 0.608546 0.075469
vt 0.617439 0.121490
vt 0.600546 0.118738
vt 0.606812 0.122778
vt 0.601045 0.121247
vt 0.598484 0.123627
vt 0.597297 0.122956
vt 0.857581 0.911737
vt 0.856631 0.918463
vt 0.930555 0.004211
vt 0.931004 0.000000
vt 0.931638 0.000044
vt 0.931069 0.004226
vt 0.930479 0.006018
vt 0.930899 0.005983
vt 0.931081 0.015412
vt 0.931638 0.015423
vt 0.197120 0.832326
vt 0.196865 0.871234
vt 0.196223 0.871260
vt 0.196477 0.832346
vt 0.817917 0.047065
vt 0.817757 0.046106
vt 0.818395 0.046179
vt 0.818551 0.047168
vt 0.966917 0.004780
vt 0.966946 0.000000
vt 0.967547 0.000138
vt 0.967547 0.004907
vt 0.817908 0.000000
vt 0.818551 0.000005
vt 0.894890 0.632662
vt 0.895060 0.643340
vt 0.894428 0.643351
vt 0.894252 0.632679
vt 0.895224 0.651719
vt 0.894584 0.651705
vt 0.196865 0.829815
vt 0.196223 0.829829
vt 0.966917 0.326604
vt 0.966917 0.322660
vt 0.967556 0.322724
vt 0.967557 0.326656
vt 0.894892 0.652874
vt 0.894252 0.652860
s 1
g off
g TentScraps_Material
usemtl Material
f 4/1/4 3/2/3 2/3/2 1/4/1
f 5/5/5 3/6/3 4/7/4
f 1/4/1 2/3/2 6/8/6 7/9/7
f 7/9/7 6/8/6 9/10/9 8/11/8
f 8/11/8 9/10/9 13/12/13 10/13/10
f 10/13/10 13/12/13 11/14/11 12/15/12
f 17/16/17 14/17/14 15/18/15 16/19/16
f 18/20/18 17/21/17 16/22/16
f 14/23/14 20/24/20 19/25/19 15/26/15
f 20/24/20 21/27/21 22/28/22 19/25/19
f 21/27/21 23/29/23 26/30/26 22/28/22
f 23/29/23 25/31/25 24/32/24 26/30/26
f 2/33/2 3/34/3 16/19/16 15/18/15
f 4/35/4 1/36/1 14/37/14 17/38/17
f 5/39/5 4/35/4 17/38/17 18/40/18
f 3/41/3 5/39/5 18/40/18 16/42/16
f 9/43/9 6/44/6 19/45/19 22/46/22
f 1/47/1 7/48/7 20/49/20 14/50/14
f 6/51/6 2/52/2 15/53/15 19/54/19
f 7/48/7 8/55/8 21/56/21 20/49/20
f 8/57/8 10/58/10 23/59/23 21/60/21
f 10/58/10 12/61/12 25/62/25 23/59/23
f 13/63/13 9/43/9 22/46/22 26/64/26
f 11/65/11 13/66/13 26/67/26 24/68/24
f 12/61/12 11/69/11 24/70/24 25/62/25
g TentScraps.001_Cube.081
v -9.697698 -0.710801 1.992003
v -9.737119 -0.710801 2.135540
v -9.698060 -0.941084 2.146496
v -9.621594 -0.941084 1.865548
v -12.940499 -1.008567 3.980412
v -12.800836 -0.957664 3.487962
v -12.742829 -0.950252 3.275803
v -12.399102 -0.879727 3.169118
v -12.899644 -0.988233 4.019919
v -10.495801 -0.941084 4.612847
v -10.255483 -0.495472 3.233773
v -10.087281 -0.941084 3.390317
v -9.778108 -0.710801 2.278639
v -9.778882 -0.941084 2.426224
v -9.956304 -0.495472 2.875962
v -9.728501 -0.740706 1.984547
v -9.767621 -0.740709 2.126984
v -9.728562 -0.970992 2.137942
v -9.652398 -0.970989 1.858094
v -12.936334 -1.087505 3.976481
v -12.796670 -1.036602 3.484029
v -12.738671 -1.029190 3.271870
v -12.393884 -0.957712 3.155846
v -12.894982 -1.066886 4.011605
v -10.495671 -1.017460 4.594171
v -10.262746 -0.566849 3.212842
v -10.107934 -0.992090 3.369733
v -9.808885 -0.735633 2.268130
v -9.809983 -0.962331 2.415152
v -9.984170 -0.527390 2.860066
vn 0.3494 0.8820 -0.3161
vn 0.3197 0.9440 0.0819
vn 0.9064 -0.3346 0.2580
vn 0.7829 -0.0422 -0.6207
vn -0.8477 0.4551 0.2728
vn -0.7672 0.6178 -0.1723
vn -0.6499 0.5579 -0.5161
vn -0.2123 0.7598 -0.6145
vn -0.4124 0.5818 0.7010
vn 0.3703 0.3863 0.8448
vn 0.2495 0.9400 -0.2325
vn 0.9397 -0.0252 0.3411
vn 0.4242 0.9052 -0.0268
vn 0.9055 -0.3262 0.2715
vn 0.4420 0.8809 -0.1696
vn -0.7424 0.3549 -0.5683
vn -0.9103 0.3227 -0.2594
vn -0.3187 -0.9443 -0.0824
vn -0.1028 -0.6745 -0.7311
vn -0.6589 -0.7321 0.1730
vn -0.6008 -0.7688 -0.2189
vn -0.4840 -0.6595 -0.5751
vn -0.0354 -0.5533 -0.8322
vn -0.2700 -0.7244 0.6343
vn 0.3822 -0.7483 0.5422
vn -0.6048 -0.2563 -0.7540
vn -0.0369 -0.9934 -0.1088
vn -0.8918 0.3128 -0.3269
vn -0.3280 -0.9409 -0.0847
vn -0.8409 0.2915 -0.4560
vt 0.333362 0.644020
vt 0.338441 0.646935
vt 0.338524 0.650117
vt 0.333523 0.650242
vt 0.070759 0.219422
vt 0.068578 0.166828
vt 0.099577 0.166828
vt 0.090859 0.212626
vt 0.333697 0.656468
vt 0.338612 0.653299
vt 0.335299 0.705685
vt 0.334381 0.678118
vt 0.343568 0.666483
vt 0.344353 0.675716
vt 0.087001 0.219462
vt 0.082325 0.219715
vt 0.071351 0.220508
vt 0.490532 0.644020
vt 0.490465 0.650223
vt 0.485458 0.650165
vt 0.485493 0.647006
vt 0.159877 0.219268
vt 0.139701 0.212393
vt 0.131060 0.166828
vt 0.162096 0.166828
vt 0.490196 0.656402
vt 0.485308 0.653310
vt 0.490532 0.705296
vt 0.480852 0.675419
vt 0.480718 0.666449
vt 0.490470 0.677808
vt 0.143731 0.219229
vt 0.159375 0.220343
vt 0.148405 0.219502
vt 0.166016 0.906235
vt 0.165968 0.903085
vt 0.166727 0.903174
vt 0.166774 0.906300
vt 0.705724 0.829815
vt 0.705902 0.835976
vt 0.705146 0.836072
vt 0.704970 0.829935
vt 0.746873 0.954224
vt 0.746873 0.959979
vt 0.746045 0.960395
vt 0.746045 0.954639
vt 0.563017 0.918794
vt 0.562809 0.907788
vt 0.564491 0.907820
vt 0.564699 0.918825
vt 0.563017 0.903085
vt 0.564699 0.903117
vt 0.317898 0.790402
vt 0.315949 0.744433
vt 0.317505 0.744797
vt 0.319581 0.790554
vt 0.765645 0.001161
vt 0.766129 0.000000
vt 0.767819 0.000046
vt 0.767341 0.001174
vt 0.317707 0.798152
vt 0.319351 0.798357
vt 0.766149 0.052769
vt 0.767819 0.052595
vt 0.333681 0.705355
vt 0.333362 0.677867
vt 0.166098 0.909385
vt 0.166857 0.909395
vt 0.705983 0.842137
vt 0.705658 0.863541
vt 0.704970 0.863404
vt 0.705224 0.842157
vt 0.318919 0.737143
vt 0.319581 0.737799
vt 0.165968 0.921907
vt 0.166717 0.921814
s 1
g off
g TentScraps.001_Material
usemtl Material
f 30/71/30 27/72/27 28/73/28 29/74/29
f 35/75/35 36/76/36 37/77/37 34/78/34
f 40/79/40 29/74/29 28/73/28 39/80/39
f 36/81/36 38/82/38 41/83/41 37/84/37
f 38/82/38 40/79/40 39/80/39 41/83/41
f 33/85/33 32/86/32 31/87/31 35/75/35 34/78/34
f 45/88/45 44/89/44 43/90/43 42/91/42
f 50/92/50 49/93/49 52/94/52 51/95/51
f 55/96/55 54/97/54 43/90/43 44/89/44
f 51/98/51 52/99/52 56/100/56 53/101/53
f 53/101/53 56/100/56 54/97/54 55/96/55
f 48/102/48 49/93/49 50/92/50 46/103/46 47/104/47
f 28/105/28 27/106/27 42/107/42 43/108/43
f 30/109/30 29/110/29 44/111/44 45/112/45
f 27/113/27 30/114/30 45/115/45 42/116/42
f 31/117/31 32/118/32 47/119/47 46/120/46
f 32/118/32 33/121/33 48/122/48 47/119/47
f 34/123/34 37/124/37 52/125/52 49/126/49
f 35/127/35 31/128/31 46/129/46 50/130/50
f 33/131/33 34/123/34 49/126/49 48/132/48
f 36/133/36 35/127/35 50/130/50 51/134/51
f 38/82/38 36/81/36 51/135/51 53/136/53
f 39/137/39 28/105/28 43/108/43 54/138/54
f 40/139/40 38/140/38 53/141/53 55/142/55
f 37/124/37 41/143/41 56/144/56 52/125/52
f 41/145/41 39/137/39 54/138/54 56/146/56
f 29/110/29 40/139/40 55/142/55 44/111/44
g TentScraps.002_Cube.082
v -15.382476 -0.405148 0.437723
v -15.327567 -0.210963 0.842102
v -15.326812 -0.262432 1.156528
v -15.374953 -0.385913 0.635281
v -15.373549 -0.383112 0.720222
v -15.405715 -0.296346 1.459183
v -15.106246 -0.356463 0.787357
v -15.338958 -0.397465 0.425915
v -13.168120 -0.379648 0.387722
v -13.274886 -0.211262 0.929256
v -13.097091 -0.379648 0.882961
v -13.085311 -0.292630 1.328455
v -13.082778 -0.292630 1.385895
v -13.047210 -0.379648 1.384771
v -13.052741 -0.379648 1.272438
v -13.101867 -0.211262 1.088146
v -15.318130 -0.405148 2.477146
v -15.288817 -0.210963 2.070110
v -15.307891 -0.262432 1.756260
v -15.323081 -0.385913 2.279509
v -15.327041 -0.383112 2.194645
v -15.064498 -0.356463 2.110796
v -15.273955 -0.397465 2.486187
v -13.105025 -0.379648 2.387459
v -13.245719 -0.211262 1.853733
v -13.065352 -0.379648 1.888729
v -13.081679 -0.292630 1.443377
v -13.045653 -0.379648 1.497231
v -13.083068 -0.211262 1.684252
v -15.386367 -0.432514 0.449381
v -15.304580 -0.229652 0.846817
v -15.302993 -0.280490 1.159016
v -15.345977 -0.393649 0.634628
v -15.350921 -0.402585 0.723185
v -15.383040 -0.315966 1.458467
v -15.109603 -0.384958 0.796120
v -15.345473 -0.424923 0.436094
v -13.172210 -0.408509 0.394814
v -13.285758 -0.238234 0.936628
v -13.119231 -0.398922 0.889160
v -13.113753 -0.302013 1.330051
v -13.110564 -0.303931 1.386768
v -13.074988 -0.390950 1.385647
v -13.081588 -0.387677 1.274221
v -13.129066 -0.223323 1.092010
v -15.322753 -0.432514 2.465755
v -15.266173 -0.229652 2.063953
v -15.284270 -0.280490 1.752277
v -15.294120 -0.393649 2.278332
v -15.304641 -0.402585 2.190264
v -15.068389 -0.384958 2.102261
v -15.281096 -0.424923 2.476440
v -13.109557 -0.408509 2.380640
v -13.257033 -0.238234 1.847061
v -13.087844 -0.398922 1.883936
v -13.110175 -0.302013 1.443577
v -13.074553 -0.387677 1.497269
v -13.110450 -0.223323 1.682110
vn -0.4994 0.0562 -0.8646
vn -0.3465 0.9380 0.0117
vn -0.0813 0.9932 0.0836
vn -0.9623 -0.2664 0.0551
vn -0.9840 -0.1655 -0.0654
vn -0.8522 0.5226 0.0269
vn 0.2262 0.8885 0.3993
vn 0.0860 0.4189 -0.9040
vn 0.5694 0.2373 -0.7871
vn 0.0579 0.9711 0.2314
vn 0.9807 -0.0386 -0.1918
vn 0.4793 0.8733 0.0867
vn 0.4088 0.9125 -0.0129
vn 0.9107 -0.4121 -0.0287
vn 0.9021 -0.4270 -0.0621
vn 0.4978 0.8537 0.1530
vn -0.4439 0.0562 0.8943
vn -0.3465 0.9380 0.0102
vn -0.0864 0.9932 -0.0783
vn -0.9639 -0.2663 0.0057
vn -0.9780 -0.1655 0.1274
vn 0.2007 0.8885 -0.4126
vn 0.1428 0.4189 0.8967
vn 0.6179 0.2373 0.7496
vn 0.0432 0.9711 -0.2346
vn 0.9908 -0.0386 0.1296
vn 0.4730 0.8733 -0.1167
vn 0.9042 -0.4270 0.0052
vn 0.4871 0.8537 -0.1841
vn -0.6142 -0.7887 -0.0282
vn 0.8338 0.2366 0.4988
vn 0.9769 0.1146 0.1804
vn 0.4374 -0.8993 -0.0082
vn 0.1241 -0.9897 0.0712
vn 0.6116 -0.7909 -0.0193
vn -0.0111 -0.5918 0.8060
vn -0.2680 -0.8230 -0.5008
vn 0.3592 -0.8431 -0.4002
vn -0.5036 -0.3657 0.7827
vn -0.0465 -0.9943 0.0957
vn -0.9145 0.3759 0.1499
vn -0.9182 0.3951 0.0290
vn -0.4005 -0.9162 0.0126
vn -0.4269 -0.9042 0.0149
vn -0.8451 0.3575 0.3975
vn -0.6112 -0.7887 0.0668
vn 0.8007 0.2367 -0.5503
vn 0.9636 0.1146 -0.2416
vn 0.4370 -0.8993 -0.0194
vn 0.1194 -0.9897 -0.0789
vn -0.0619 -0.5917 -0.8037
vn -0.2359 -0.8230 0.5167
vn 0.3836 -0.8431 0.3768
vn -0.5519 -0.3657 -0.7494
vn -0.0525 -0.9943 -0.0926
vn -0.9221 0.3759 -0.0919
vn -0.4270 -0.9042 0.0121
vn -0.8685 0.3575 -0.3435
vt 0.264986 0.914519
vt 0.264687 0.903085
vt 0.267272 0.909378
vt 0.265603 0.918723
vt 0.132941 0.919021
vt 0.132862 0.903085
vt 0.134486 0.909496
vt 0.132862 0.920832
vt 0.061689 0.784231
vt 0.052572 0.782818
vt 0.054034 0.778477
vt 0.061905 0.783279
vt 0.049996 0.739323
vt 0.061905 0.737143
vt 0.765953 0.294671
vt 0.767908 0.295847
vt 0.767905 0.297077
vt 0.765947 0.297077
vt 0.766241 0.275670
vt 0.770213 0.287181
vt 0.769659 0.290696
vt 0.766059 0.286311
vt 0.301040 0.914519
vt 0.300423 0.918723
vt 0.298754 0.909378
vt 0.301340 0.903085
vt 0.231678 0.904880
vt 0.231597 0.903085
vt 0.233204 0.913801
vt 0.231597 0.920332
vt 0.226282 0.784243
vt 0.226028 0.783297
vt 0.233690 0.778272
vt 0.234379 0.782596
vt 0.226028 0.737143
vt 0.237044 0.739006
vt 0.765953 0.299484
vt 0.767908 0.298308
vt 0.766241 0.318485
vt 0.766059 0.307844
vt 0.769659 0.303459
vt 0.770213 0.306974
vt 0.740793 0.853989
vt 0.741069 0.858031
vt 0.737946 0.849089
vt 0.739706 0.842561
vt 0.067056 0.918907
vt 0.066932 0.920787
vt 0.065751 0.909448
vt 0.067531 0.903085
vt 0.093645 0.784334
vt 0.093387 0.783439
vt 0.101228 0.778524
vt 0.102443 0.782353
vt 0.093387 0.737143
vt 0.105149 0.739468
vt 0.765762 0.449008
vt 0.765678 0.446620
vt 0.767669 0.446620
vt 0.767716 0.447835
vt 0.765645 0.467878
vt 0.765656 0.457269
vt 0.769393 0.452937
vt 0.769847 0.456366
vt 0.398763 0.914564
vt 0.398763 0.903085
vt 0.401133 0.909417
vt 0.398871 0.918614
vt 0.199637 0.904988
vt 0.200115 0.920560
vt 0.198339 0.914126
vt 0.199514 0.903085
vt 0.194268 0.784337
vt 0.186026 0.782258
vt 0.186811 0.778436
vt 0.194546 0.783447
vt 0.183254 0.739332
vt 0.194546 0.737143
vt 0.765762 0.444232
vt 0.767716 0.445405
vt 0.765645 0.425362
vt 0.769847 0.436874
vt 0.769393 0.440303
vt 0.765656 0.435971
vt 0.737466 0.849154
vt 0.739240 0.842581
vt 0.740353 0.836244
vt 0.740840 0.836296
vt 0.265012 0.918612
vt 0.264687 0.914586
vt 0.067494 0.918941
vt 0.067531 0.920759
vt 0.632619 0.845599
vt 0.630534 0.861382
vt 0.630015 0.861304
vt 0.632096 0.845599
vt 0.768841 0.200318
vt 0.766284 0.239665
vt 0.765645 0.239729
vt 0.768240 0.200544
vt 0.766278 0.564495
vt 0.766496 0.565446
vt 0.765872 0.565293
vt 0.765645 0.564394
vt 0.768841 0.244212
vt 0.768435 0.243719
vt 0.766278 0.611669
vt 0.765645 0.611576
vt 0.765724 0.286428
vt 0.765645 0.275819
vt 0.896057 0.747253
vt 0.895798 0.748446
vt 0.895180 0.748320
vt 0.895445 0.747148
vt 0.894977 0.443755
vt 0.894294 0.435416
vt 0.894927 0.435404
vt 0.895495 0.443660
vt 0.767864 0.196304
vt 0.767585 0.196880
vt 0.894844 0.753252
vt 0.894252 0.753089
vt 0.894252 0.433015
vt 0.894869 0.433026
vt 0.617841 0.961037
vt 0.617860 0.954223
vt 0.618302 0.954374
vt 0.618302 0.961139
vt 0.740619 0.829815
vt 0.741069 0.829933
vt 0.301340 0.914586
vt 0.301014 0.918612
vt 0.200115 0.903085
vt 0.200077 0.904895
vt 0.630534 0.829815
vt 0.630015 0.829893
vt 0.766166 0.354620
vt 0.769553 0.393903
vt 0.769056 0.393683
vt 0.765645 0.354562
vt 0.818315 0.124645
vt 0.818238 0.125611
vt 0.817757 0.125760
vt 0.817822 0.124845
vt 0.769553 0.349943
vt 0.769198 0.350442
vt 0.818299 0.078626
vt 0.817757 0.078766
vt 0.765645 0.318336
vt 0.765724 0.307727
vt 0.896287 0.746053
vt 0.895664 0.745956
vt 0.894294 0.430613
vt 0.894977 0.422265
vt 0.895495 0.422405
vt 0.894927 0.430638
vt 0.894597 0.736655
vt 0.897382 0.740841
vt 0.896765 0.740803
vt 0.894252 0.736804
s 1
g off
g TentScraps.002_Material
usemtl Material
f 60/147/60 59/148/59 58/149/58 57/150/57
f 61/151/61 62/152/62 59/153/59 60/154/60
f 57/155/57 58/156/58 63/157/63 64/158/64
f 64/158/64 63/157/63 66/159/66 65/160/65
f 71/161/71 68/162/68 69/163/69 70/164/70
f 65/165/65 66/166/66 72/167/72 67/168/67
f 67/168/67 72/167/72 68/162/68 71/161/71
f 76/169/76 73/170/73 74/171/74 75/172/75
f 77/173/77 76/174/76 75/175/75 62/176/62
f 73/177/73 79/178/79 78/179/78 74/180/74
f 79/178/79 80/181/80 81/182/81 78/179/78
f 84/183/84 70/164/70 69/163/69 83/184/83
f 80/185/80 82/186/82 85/187/85 81/188/81
f 82/186/82 84/183/84 83/184/83 85/187/85
f 89/189/89 86/190/86 87/191/87 88/192/88
f 90/193/90 89/194/89 88/195/88 91/196/91
f 86/197/86 93/198/93 92/199/92 87/200/87
f 93/198/93 94/201/94 95/202/95 92/199/92
f 100/203/100 99/204/99 98/205/98 97/206/97
f 94/207/94 96/208/96 101/209/101 95/210/95
f 96/208/96 100/203/100 97/206/97 101/209/101
f 105/211/105 104/212/104 103/213/103 102/214/102
f 106/215/106 91/216/91 104/217/104 105/218/105
f 102/219/102 103/220/103 107/221/107 108/222/108
f 108/222/108 107/221/107 110/223/110 109/224/109
f 113/225/113 112/226/112 98/205/98 99/204/99
f 109/227/109 110/228/110 114/229/114 111/230/111
f 111/230/111 114/229/114 112/226/112 113/225/113
f 58/231/58 59/232/59 88/192/88 87/191/87
f 59/232/59 62/233/62 91/234/91 88/192/88
f 60/147/60 57/150/57 86/235/86 89/236/89
f 61/237/61 60/238/60 89/194/89 90/193/90
f 62/239/62 61/240/61 90/241/90 91/242/91
f 66/243/66 63/244/63 92/245/92 95/246/95
f 57/247/57 64/248/64 93/249/93 86/250/86
f 63/244/63 58/251/58 87/252/87 92/245/92
f 64/248/64 65/253/65 94/254/94 93/249/93
f 65/165/65 67/168/67 96/255/96 94/256/94
f 69/257/69 68/258/68 97/259/97 98/260/98
f 67/261/67 71/262/71 100/263/100 96/264/96
f 72/265/72 66/243/66 95/246/95 101/266/101
f 68/258/68 72/267/72 101/268/101 97/259/97
f 71/262/71 70/269/70 99/270/99 100/263/100
f 75/271/75 74/272/74 103/273/103 104/274/104
f 62/233/62 75/275/75 104/276/104 91/234/91
f 73/170/73 76/169/76 105/277/105 102/278/102
f 76/279/76 77/280/77 106/215/106 105/218/105
f 77/281/77 62/239/62 91/242/91 106/282/106
f 78/283/78 81/284/81 110/285/110 107/286/107
f 79/287/79 73/288/73 102/289/102 108/290/108
f 74/291/74 78/283/78 107/286/107 103/292/103
f 80/293/80 79/287/79 108/290/108 109/294/109
f 82/186/82 80/185/80 109/295/109 111/296/111
f 83/297/83 69/257/69 98/260/98 112/298/112
f 84/299/84 82/300/82 111/301/111 113/302/113
f 81/303/81 85/304/85 114/305/114 110/306/110
f 85/304/85 83/297/83 112/298/112 114/305/114
f 70/269/70 84/299/84 113/302/113 99/270/99
