# Blender 4.3.2
# www.blender.org
mtllib FireAxe_PSX.mtl
g Cube.003_Cube.009
v -0.577150 0.067727 0.567134
v -0.608977 0.067727 0.523610
v 0.464382 0.021889 -0.171691
v 0.464435 0.118150 -0.171693
v 0.410836 0.021889 -0.244916
v 0.410855 0.118150 -0.244965
v 0.128568 0.018469 -0.027855
v -0.154667 0.033505 0.187469
v -0.398369 0.045799 0.368522
v -0.398442 0.089762 0.368590
v -0.154937 0.083445 0.187691
v 0.128480 0.078462 -0.027781
v -0.365512 0.045799 0.413455
v -0.119097 0.033505 0.236112
v 0.171962 0.018469 0.031487
v 0.171865 0.078462 0.031548
v -0.119390 0.083445 0.236302
v -0.365599 0.089762 0.413505
v -0.579715 0.040630 0.569010
v -0.539347 0.018577 0.539491
v -0.571174 0.018577 0.495966
v -0.611542 0.040630 0.525486
v 0.271392 0.088226 -0.137951
v 0.320159 0.019237 -0.071229
v 0.271378 0.019237 -0.137937
v 0.320176 0.088226 -0.071237
v -0.593064 0.074070 0.545372
v 0.437602 0.005314 -0.208298
v 0.437676 0.148654 -0.208352
v 0.150181 0.089552 0.001878
v -0.137139 0.097137 0.211979
v -0.382006 0.099196 0.391037
v -0.381686 0.033704 0.390803
v -0.136562 0.022749 0.211557
v 0.150374 0.000212 0.001736
v -0.555260 0.000883 0.517729
v -0.595629 0.033720 0.547248
v 0.295781 0.104091 -0.104592
v 0.295755 0.001364 -0.104573
v -0.534403 0.072055 0.535876
v -0.566230 0.072055 0.492351
v -0.550317 0.078980 0.514114
v 0.367943 -0.043364 -0.245647
v 0.408701 0.178685 -0.206241
v 0.518879 -0.039822 -0.356018
v 0.543370 0.181860 -0.305988
v 0.375062 0.067741 -0.250852
v 0.510331 0.070916 -0.349767
v 0.376660 0.158654 -0.249977
v 0.511588 0.161828 -0.349369
v 0.416909 -0.042223 -0.281453
v 0.452855 0.179708 -0.238040
v 0.419028 0.068764 -0.283000
v 0.420739 0.159677 -0.281892
v 0.455923 0.333009 -0.227517
v 0.479123 0.315184 -0.247765
v 0.532219 0.235769 -0.293892
v 0.504837 0.288495 -0.268842
v 0.474823 0.294684 -0.245255
v 0.479363 0.256359 -0.251217
v 0.477562 0.218033 -0.253105
v 0.374908 -0.086232 -0.185180
v 0.550116 -0.084793 -0.313300
v 0.439818 -0.103745 -0.232645
v 0.409817 -0.043364 -0.187980
v 0.417785 0.178685 -0.193807
v 0.560752 -0.039822 -0.298351
v 0.553060 0.181860 -0.292726
v 0.552227 0.070916 -0.292117
v 0.416959 0.067741 -0.193203
v 0.552875 0.161828 -0.292591
v 0.417602 0.158654 -0.193673
v 0.461706 0.179708 -0.225924
v 0.458693 0.333009 -0.223721
v 0.483457 0.315184 -0.241829
v 0.510254 0.288495 -0.261425
v 0.540031 0.235769 -0.283199
v 0.484984 0.218033 -0.242946
v 0.485257 0.256359 -0.243146
v 0.479459 0.294684 -0.238906
v 0.385729 -0.086231 -0.170366
v 0.560937 -0.084793 -0.298486
v 0.307272 -0.247553 -0.114817
v 0.562999 -0.257752 -0.299994
v 0.562130 -0.257752 -0.301182
v 0.308140 -0.247553 -0.113630
v 0.505848 -0.265572 -0.260026
v 0.317716 -0.249885 -0.122454
v 0.438657 -0.183653 -0.224728
v 0.411499 -0.268773 -0.191033
v 0.318584 -0.249885 -0.121267
v 0.506717 -0.265572 -0.258838
v 0.412368 -0.268773 -0.189846
v 0.452074 -0.043364 -0.130594
v 0.426880 0.178685 -0.181380
v 0.603010 -0.039822 -0.240966
v 0.562760 0.181860 -0.279472
v 0.459193 0.067741 -0.135800
v 0.594462 0.070916 -0.234715
v 0.458844 0.158654 -0.137588
v 0.594464 0.161828 -0.236034
v 0.501040 -0.042223 -0.166401
v 0.470568 0.179708 -0.213816
v 0.503157 0.068764 -0.167951
v 0.502620 0.159677 -0.169917
v 0.461470 0.333009 -0.219931
v 0.487799 0.315184 -0.235900
v 0.547853 0.235769 -0.272512
v 0.515680 0.288495 -0.254014
v 0.484104 0.294684 -0.232563
v 0.491161 0.256359 -0.235082
v 0.492415 0.218033 -0.232794
v 0.396565 -0.086232 -0.155563
v 0.571773 -0.084793 -0.283684
v 0.461475 -0.103745 -0.203029
v 0.309009 -0.247553 -0.112442
v 0.563867 -0.257752 -0.298806
v 0.507586 -0.265572 -0.257650
v 0.319453 -0.249885 -0.120079
v 0.453578 -0.183653 -0.204322
v 0.413236 -0.268773 -0.188658
v 0.417785 0.178685 -0.193807
v 0.408701 0.178685 -0.206241
v 0.375062 0.067741 -0.250852
v 0.367943 -0.043364 -0.245647
v 0.510331 0.070916 -0.349767
v 0.518879 -0.039822 -0.356018
v 0.376660 0.158654 -0.249977
v 0.511588 0.161828 -0.349369
v 0.543370 0.181860 -0.305988
v 0.477562 0.218033 -0.253105
v 0.504837 0.288495 -0.268842
v 0.479123 0.315184 -0.247765
v 0.532219 0.235769 -0.293892
v 0.455923 0.333009 -0.227517
v 0.455923 0.333009 -0.227517
v 0.474823 0.294684 -0.245255
v 0.479363 0.256359 -0.251217
v 0.550116 -0.084793 -0.313300
v 0.374908 -0.086232 -0.185180
v 0.458693 0.333009 -0.223721
v 0.562999 -0.257752 -0.299994
v 0.562130 -0.257752 -0.301182
v 0.562130 -0.257752 -0.301182
v 0.307272 -0.247553 -0.114817
v 0.307272 -0.247553 -0.114817
v 0.308140 -0.247553 -0.113630
v 0.505848 -0.265572 -0.260026
v 0.411499 -0.268773 -0.191033
v 0.317716 -0.249885 -0.122454
v 0.426880 0.178685 -0.181380
v 0.459193 0.067741 -0.135800
v 0.452074 -0.043364 -0.130594
v 0.594462 0.070916 -0.234715
v 0.603010 -0.039822 -0.240966
v 0.458844 0.158654 -0.137588
v 0.594464 0.161828 -0.236034
v 0.562760 0.181860 -0.279472
v 0.492415 0.218033 -0.232794
v 0.515680 0.288495 -0.254014
v 0.487799 0.315184 -0.235900
v 0.547853 0.235769 -0.272512
v 0.461470 0.333009 -0.219931
v 0.461470 0.333009 -0.219931
v 0.484104 0.294684 -0.232563
v 0.491161 0.256359 -0.235082
v 0.571773 -0.084793 -0.283684
v 0.396565 -0.086232 -0.155563
v 0.563867 -0.257752 -0.298806
v 0.563867 -0.257752 -0.298806
v 0.309009 -0.247553 -0.112442
v 0.309009 -0.247553 -0.112442
v 0.507586 -0.265572 -0.257650
v 0.413236 -0.268773 -0.188658
v 0.319453 -0.249885 -0.120079
vn 0.3787 -0.5772 0.7235
vn 0.4239 0.6053 0.6738
vn -0.0876 0.5025 0.8602
vn -0.1577 -0.2849 0.9455
vn -0.5009 -0.5514 -0.6671
vn -0.5703 0.5288 -0.6285
vn 0.0603 0.4499 -0.8910
vn 0.0824 -0.4465 -0.8910
vn 0.5213 -0.7635 -0.3812
vn 0.4004 0.8683 -0.2928
vn 0.8674 0.4499 0.2127
vn 0.8740 -0.4465 0.1916
vn -0.5746 -0.5772 -0.5802
vn -0.9488 -0.2849 -0.1364
vn -0.8462 0.5024 -0.1773
vn -0.5136 0.6053 -0.6082
vn 0.0056 -1.0000 -0.0041
vn 0.4839 -0.5514 0.6796
vn -0.0719 0.9960 0.0526
vn -0.5338 0.7501 0.3904
vn -0.1154 0.9897 0.0844
vn -0.0235 0.9996 0.0172
vn 0.4611 0.5679 0.6818
vn 0.4261 0.5288 0.7340
vn 0.0107 0.9999 -0.0078
vn 0.4862 0.5662 0.6656
vn -0.0321 0.9992 0.0235
vn 0.4534 0.5916 0.6666
vn -0.6893 -0.5203 0.5041
vn 0.0381 -0.9989 -0.0279
vn -0.0390 -0.9988 0.0285
vn 0.4622 -0.5559 0.6909
vn 0.5217 -0.5161 0.6794
vn -0.0230 -0.9996 0.0168
vn 0.4696 -0.5496 0.6909
vn -0.4892 -0.5161 -0.7031
vn -0.4978 0.5916 -0.6342
vn -0.4868 0.5662 -0.6651
vn -0.5183 -0.5559 -0.6499
vn -0.5100 0.5679 -0.6461
vn -0.5160 -0.5496 -0.6570
vn -0.1318 -0.9866 0.0964
vn -0.8072 0.0093 0.5902
vn -0.8072 0.0099 0.5902
vn -0.8085 0.0099 0.5884
vn -0.8088 0.0089 0.5881
vn -0.4904 0.5797 -0.6507
vn -0.3748 0.9167 -0.1385
vn -0.4698 0.6456 -0.6021
vn -0.4920 0.5828 -0.6467
vn -0.5485 -0.3793 -0.7452
vn -0.5906 0.0090 -0.8069
vn -0.5919 0.0081 -0.8060
vn -0.5175 -0.3906 -0.7614
vn -0.7599 0.3375 0.5556
vn -0.8064 0.0440 0.5897
vn -0.8082 0.0442 0.5873
vn -0.7833 0.2501 0.5691
vn -0.5895 0.0094 -0.8077
vn -0.4903 0.5728 -0.6569
vn -0.5722 -0.4307 -0.6979
vn -0.6290 0.0415 -0.7763
vn -0.6182 0.0430 -0.7848
vn -0.6394 0.0401 -0.7678
vn -0.1185 0.9841 -0.1326
vn 0.7993 0.1400 -0.5844
vn 0.8045 0.0956 -0.5863
vn 0.7290 0.4300 -0.5326
vn 0.7266 0.4356 -0.5313
vn -0.6068 0.0624 -0.7924
vn -0.6076 0.0623 -0.7918
vn -0.6123 0.0562 -0.7886
vn -0.6121 0.0522 -0.7891
vn -0.4926 -0.4477 -0.7463
vn -0.5521 -0.3875 -0.7382
vn -0.5946 -0.3508 -0.7235
vn -0.6756 0.5491 0.4921
vn -0.6783 0.5422 0.4960
vn 0.8072 0.0670 -0.5865
vn 0.8062 0.0497 -0.5895
vn 0.8072 0.0095 -0.5902
vn 0.8083 0.0082 -0.5887
vn 0.8071 0.0148 -0.5902
vn 0.8074 0.0148 -0.5898
vn -0.8047 -0.0843 0.5877
vn -0.8041 -0.0881 0.5880
vn -0.7471 -0.3786 0.5463
vn -0.7500 -0.3710 0.5476
vn -0.7615 0.3329 0.5562
vn -0.7644 0.3212 0.5590
vn -0.3671 0.8906 0.2685
vn 0.4591 0.8227 -0.3352
vn 0.4058 0.8646 -0.2962
vn 0.4055 0.8646 -0.2965
vn 0.4569 0.8244 -0.3341
vn 0.5924 0.6796 -0.4327
vn 0.5895 0.6832 -0.4310
vn -0.6702 -0.5573 0.4901
vn -0.6706 -0.5573 0.4895
vn 0.8082 0.0434 -0.5873
vn 0.8088 -0.0089 -0.5881
vn 0.8072 -0.0093 -0.5902
vn 0.8065 0.0432 -0.5897
vn -0.0152 0.9998 0.0111
vn -0.5707 -0.0942 -0.8157
vn -0.5741 -0.1048 -0.8121
vn -0.5899 -0.1006 -0.8012
vn -0.1432 -0.9841 0.1047
vn -0.1364 -0.9856 0.0997
vn -0.6937 0.5119 0.5067
vn -0.6934 0.5119 0.5071
vn 0.0561 -0.9976 -0.0410
vn 0.0900 -0.9938 -0.0658
vn -0.5945 -0.1247 -0.7943
vn -0.6097 -0.0893 -0.7876
vn -0.0540 -0.9978 0.0395
vn -0.6114 -0.0824 -0.7870
vn -0.8056 0.0089 0.5924
vn -0.8058 0.0099 0.5921
vn 0.4714 0.5797 0.6646
vn 0.4671 0.5828 0.6650
vn 0.4314 0.6456 0.6302
vn 0.0184 0.9167 0.3991
vn 0.5438 -0.3793 0.7486
vn 0.5687 -0.3906 0.7239
vn 0.5886 0.0081 0.8084
vn 0.5899 0.0090 0.8075
vn -0.7798 0.2501 0.5739
vn -0.8047 0.0442 0.5921
vn 0.5910 0.0094 0.8066
vn 0.4773 0.5728 0.6664
vn 0.4916 -0.4307 0.7569
vn 0.5491 0.0415 0.8348
vn 0.5379 0.0401 0.8421
vn 0.5605 0.0430 0.8271
vn 0.0904 0.9841 0.1532
vn 0.7285 0.4300 -0.5332
vn 0.8026 0.0956 -0.5889
vn 0.5704 0.0623 0.8190
vn 0.5711 0.0624 0.8185
vn 0.5663 0.0522 0.8225
vn 0.5659 0.0562 0.8226
vn 0.5361 -0.3875 0.7500
vn 0.5618 -0.4477 0.6957
vn 0.5091 -0.3508 0.7860
vn -0.6737 0.5491 0.4946
vn 0.8036 0.0670 -0.5914
vn 0.8061 0.0082 -0.5918
vn 0.8068 0.0148 -0.5906
vn -0.8040 -0.0843 0.5886
vn -0.7492 -0.3710 0.5487
vn -0.7609 0.3329 0.5570
vn 0.4586 0.8227 -0.3359
vn 0.4053 0.8646 -0.2969
vn 0.5919 0.6796 -0.4333
vn -0.6698 -0.5573 0.4907
vn 0.8047 0.0434 -0.5921
vn 0.8056 -0.0089 -0.5924
vn 0.5846 -0.1006 0.8050
vn 0.5998 -0.1048 0.7932
vn 0.6043 -0.0942 0.7912
vn -0.6932 0.5119 0.5074
vn 0.5767 -0.1247 0.8074
vn 0.5656 -0.0893 0.8198
vn 0.5646 -0.0824 0.8212
vt 0.146430 0.961601
vt 0.202612 0.955416
vt 0.199307 0.996808
vt 0.170841 1.000000
vt 0.350523 0.139653
vt 0.277860 0.137817
vt 0.250505 0.000000
vt 0.351892 0.002576
vt 0.634651 0.747291
vt 0.634614 0.610088
vt 0.673583 0.639278
vt 0.673583 0.731417
vt 0.326255 0.961601
vt 0.301844 1.000000
vt 0.273378 0.996808
vt 0.270073 0.955416
vt 0.103353 0.140561
vt 0.103353 0.003484
vt 0.120793 0.002576
vt 0.122161 0.139653
vt 0.062151 0.956685
vt 0.061413 0.998232
vt 0.037551 0.998639
vt 0.038041 0.957139
vt 0.046134 0.140216
vt 0.044549 0.281551
vt 0.010983 0.282312
vt 0.006948 0.141337
vt 0.056833 0.557495
vt 0.027376 0.558512
vt 0.065432 0.793027
vt 0.039580 0.793697
vt 0.725051 0.784010
vt 0.725051 0.745311
vt 0.748194 0.751364
vt 0.748194 0.777415
vt 0.157282 0.793868
vt 0.138556 0.557456
vt 0.149882 0.557173
vt 0.170018 0.793510
vt 0.106403 0.280976
vt 0.125622 0.280224
vt 0.194824 0.137817
vt 0.188812 0.278729
vt 0.202490 0.556127
vt 0.216326 0.792427
vt 0.302667 0.793510
vt 0.256359 0.792427
vt 0.270194 0.556127
vt 0.322803 0.557173
vt 0.283872 0.278729
vt 0.347063 0.280224
vt 0.725051 0.812363
vt 0.701908 0.795476
vt 0.701908 0.777415
vt 0.127804 0.962344
vt 0.222180 0.000000
vt 0.060592 0.000000
vt 0.011998 0.002332
vt 0.369332 0.140561
vt 0.366282 0.280976
vt 0.083267 0.002703
vt 0.071838 0.141675
vt 0.315403 0.793867
vt 0.344881 0.962344
vt 0.748194 0.795476
vt 0.334129 0.557456
vt 0.701908 0.751364
vt 0.074659 0.558758
vt 0.083267 0.793924
vt 0.068691 0.282612
vt 0.080376 0.957360
vt 0.079886 0.998859
vt 0.369332 0.003484
vt 0.595710 0.731434
vt 0.595660 0.639295
vt 0.626737 0.456419
vt 0.626737 0.437703
vt 0.639957 0.437702
vt 0.686498 0.456386
vt 0.877564 0.610746
vt 0.894648 0.653133
vt 0.839566 0.652026
vt 0.822486 0.610088
vt 0.577376 0.194732
vt 0.580320 0.088520
vt 0.677421 0.086997
vt 0.685820 0.193034
vt 0.626737 0.646462
vt 0.626737 0.541316
vt 0.687914 0.541279
vt 0.687914 0.646420
vt 0.581488 0.001530
vt 0.678645 0.000000
vt 0.533563 0.089240
vt 0.534775 0.002248
vt 0.525301 0.195536
vt 0.742211 0.455231
vt 0.737522 0.474762
vt 0.716239 0.437702
vt 0.904060 0.610546
vt 0.921141 0.652826
vt 0.476059 0.608361
vt 0.461959 0.608364
vt 0.464690 0.559172
vt 0.476059 0.559169
vt 0.813424 0.584119
vt 0.716239 0.584358
vt 0.741789 0.548175
vt 0.800704 0.532302
vt 0.742880 0.511531
vt 0.770143 0.481290
vt 0.684914 0.236594
vt 0.567511 0.254084
vt 0.498598 0.236941
vt 0.642485 0.691698
vt 0.626737 0.691700
vt 0.414882 0.784782
vt 0.476059 0.784673
vt 0.476059 0.819661
vt 0.460311 0.819666
vt 0.476059 0.954992
vt 0.474796 0.954992
vt 0.970929 0.675734
vt 0.962350 0.675735
vt 0.962350 0.641274
vt 0.969098 0.641273
vt 0.973150 0.711524
vt 0.962350 0.711525
vt 0.975230 0.752350
vt 0.962350 0.752351
vt 0.469750 0.465548
vt 0.472025 0.437704
vt 0.476059 0.437702
vt 0.476059 0.465546
vt 0.468174 0.501419
vt 0.476059 0.501416
vt 0.962350 0.610089
vt 0.966383 0.610088
vt 0.414882 0.694044
vt 0.415794 0.623881
vt 0.476059 0.623795
vt 0.476059 0.693949
vt 0.921144 0.664834
vt 0.894652 0.664834
vt 0.685820 0.402309
vt 0.625925 0.409463
vt 0.562129 0.330593
vt 0.702245 0.000000
vt 0.702245 0.010207
vt 0.700982 0.010207
vt 0.700982 0.000000
vt 0.628000 0.859082
vt 0.626737 0.859082
vt 0.702245 0.192538
vt 0.702245 0.246351
vt 0.700982 0.246351
vt 0.700982 0.192538
vt 0.525579 0.411971
vt 0.425973 0.393342
vt 0.700982 0.101746
vt 0.702245 0.101746
vt 0.414882 0.391049
vt 0.566976 0.456386
vt 0.613518 0.437702
vt 0.877564 0.718923
vt 0.822486 0.719580
vt 0.839566 0.677643
vt 0.894648 0.676536
vt 0.822589 0.194732
vt 0.714145 0.193034
vt 0.722544 0.086997
vt 0.819645 0.088520
vt 0.565560 0.646420
vt 0.565560 0.541279
vt 0.721321 0.000000
vt 0.818477 0.001530
vt 0.866402 0.089240
vt 0.865191 0.002248
vt 0.874664 0.195536
vt 0.912961 0.455231
vt 0.938933 0.437702
vt 0.917650 0.474762
vt 0.904060 0.719123
vt 0.921141 0.676843
vt 0.487427 0.559172
vt 0.490158 0.608364
vt 0.841748 0.584119
vt 0.854468 0.532302
vt 0.913383 0.548175
vt 0.938933 0.584358
vt 0.885029 0.481290
vt 0.912292 0.511531
vt 0.832454 0.254084
vt 0.715051 0.236594
vt 0.901367 0.236941
vt 0.610989 0.691698
vt 0.537236 0.784782
vt 0.491807 0.819666
vt 0.477322 0.954992
vt 0.953770 0.675734
vt 0.955601 0.641273
vt 0.951549 0.711524
vt 0.949469 0.752350
vt 0.482368 0.465548
vt 0.480092 0.437704
vt 0.483943 0.501419
vt 0.958316 0.610088
vt 0.537236 0.694044
vt 0.536323 0.623881
vt 0.837836 0.330593
vt 0.774040 0.409463
vt 0.714145 0.402309
vt 0.699719 0.000000
vt 0.699719 0.010207
vt 0.625474 0.859082
vt 0.699719 0.192538
vt 0.699719 0.246351
vt 0.874386 0.411971
vt 0.973993 0.393342
vt 0.699719 0.101746
vt 0.985084 0.391049
s 1
g off
g Cube.003_Material.006
usemtl Material.006
f 20/1/1 40/2/2 1/3/3 19/4/4
f 25/5/5 23/6/6 6/7/7 5/8/8
f 28/9/9 29/10/10 4/11/11 3/12/12
f 21/13/13 22/14/14 2/15/15 41/16/16
f 39/17/17 28/18/9 3/19/12 24/20/18
f 42/21/19 27/22/20 1/23/3 40/24/2
f 38/25/21 30/26/22 16/27/23 26/28/24
f 30/26/22 31/29/25 17/30/26 16/27/23
f 31/29/25 32/31/27 18/32/28 17/30/26
f 37/33/29 27/34/20 2/35/15 22/36/14
f 33/37/30 34/38/31 14/39/32 13/40/33
f 34/38/31 35/41/34 15/42/35 14/39/32
f 24/20/18 26/43/24 16/44/23 15/42/35
f 15/42/35 16/44/23 17/45/26 14/39/32
f 14/39/32 17/45/26 18/46/28 13/40/33
f 9/47/36 10/48/37 11/49/38 8/50/39
f 8/50/39 11/49/38 12/51/40 7/52/41
f 36/53/42 20/54/1 19/55/4 37/33/29
f 36/56/42 33/37/30 13/40/33 20/1/1
f 3/19/12 4/57/11 26/43/24 24/20/18
f 29/58/10 38/25/21 26/28/24 4/59/11
f 35/41/34 39/17/17 24/20/18 15/42/35
f 7/52/41 12/51/40 23/6/6 25/5/5
f 7/52/41 25/5/5 39/60/17 35/61/34
f 6/62/7 23/63/6 38/25/21 29/58/10
f 21/13/13 9/47/36 33/64/30 36/65/42
f 21/66/13 36/53/42 37/33/29 22/36/14
f 8/50/39 7/52/41 35/61/34 34/67/31
f 9/47/36 8/50/39 34/67/31 33/64/30
f 19/55/4 1/68/3 27/34/20 37/33/29
f 11/69/38 10/70/37 32/31/27 31/29/25
f 12/71/40 11/69/38 31/29/25 30/26/22
f 23/63/6 12/71/40 30/26/22 38/25/21
f 41/72/16 2/73/15 27/22/20 42/21/19
f 25/5/5 5/8/8 28/74/9 39/60/17
f 5/75/8 6/76/7 29/10/10 28/9/9
f 10/70/37 41/72/16 42/21/19 32/31/27
f 32/31/27 42/21/19 40/24/2 18/32/28
f 9/47/36 21/13/13 41/16/16 10/48/37
f 13/40/33 18/46/28 40/2/2 20/1/1
s 2
f 72/77/43 122/78/44 123/79/45 128/80/46
s 3
f 54/81/47 52/82/48 130/83/49 129/84/50
f 51/85/51 53/86/52 126/87/53 127/88/54
s 2
f 65/89/55 70/90/56 124/91/57 125/92/58
s 3
f 53/86/52 54/93/47 129/94/50 126/87/53
s 2
f 70/90/56 72/77/43 128/80/46 124/91/57
s 3
f 47/95/59 49/96/60 54/93/47 53/86/52
f 43/97/61 47/95/59 53/86/52 51/85/51
f 133/98/62 137/99/63 135/100/64
f 49/101/60 44/102/65 52/82/48 54/81/47
s 4
f 68/103/66 46/104/67 57/105/68 77/106/69
s 3
f 130/107/49 52/108/48 131/109/70 134/110/71
f 134/110/71 131/109/70 138/111/72 132/112/73
f 132/112/73 138/111/72 137/99/63 133/98/62
f 51/85/51 127/88/54 63/113/74 64/114/75
f 43/97/61 51/85/51 64/114/75 140/115/76
s 2
f 65/89/55 125/92/58 62/116/77 81/117/78
s 4
f 45/118/79 67/119/80 82/120/81 139/121/82
f 139/121/82 82/120/81 142/122/83 143/123/84
s 3
f 60/124/85 79/125/86 80/126/87 59/127/88
f 61/128/89 78/129/90 79/125/86 60/124/85
f 52/130/48 73/131/91 78/129/90 61/128/89
s 4
f 56/132/92 136/133/93 141/134/94 75/135/95
f 58/136/96 76/137/97 77/106/69 57/105/68
f 56/132/92 75/135/95 76/137/97 58/136/96
s 3
f 59/127/88 80/126/87 74/138/98 55/139/99
s 4
f 48/140/100 50/141/101 71/142/102 69/143/103
f 45/118/79 48/140/100 69/143/103 67/119/80
s 3
f 52/82/48 44/102/65 66/144/104 73/145/91
s 4
f 50/141/101 46/104/67 68/103/66 71/142/102
s 3
f 64/114/75 63/113/74 144/146/105 148/147/106 89/148/107
s 5
f 145/149/108 88/150/109 91/151/109 147/152/108
s 2
f 81/117/78 62/116/77 146/153/110 86/154/111
s 5
f 87/155/112 85/156/113 84/157/113 92/158/112
s 3
f 148/147/106 149/159/114 89/148/107
f 149/159/114 150/160/115 89/148/107
s 5
f 87/155/112 92/158/112 93/161/116 90/162/116
f 90/162/116 93/161/116 91/151/109 88/150/109
s 3
f 140/115/76 64/114/75 89/148/107 150/160/115 83/163/117
s 2
f 72/77/43 156/164/118 151/165/119 122/78/44
s 3
f 105/166/120 157/167/121 158/168/122 103/169/123
f 102/170/124 155/171/125 154/172/126 104/173/127
s 2
f 65/89/55 153/174/128 152/175/129 70/90/56
s 3
f 104/173/127 154/172/126 157/176/121 105/177/120
s 2
f 70/90/56 152/175/129 156/164/118 72/77/43
s 3
f 98/178/130 104/173/127 105/177/120 100/179/131
f 94/180/132 102/170/124 104/173/127 98/178/130
f 161/181/133 163/182/134 165/183/135
f 100/184/131 105/166/120 103/169/123 95/185/136
s 4
f 68/103/66 77/106/69 108/186/137 97/187/138
s 3
f 158/188/122 162/189/139 159/190/140 103/191/123
f 162/189/139 160/192/141 166/193/142 159/190/140
f 160/192/141 161/181/133 165/183/135 166/193/142
f 102/170/124 115/194/143 114/195/144 155/171/125
f 94/180/132 168/196/145 115/194/143 102/170/124
s 2
f 65/89/55 81/117/78 113/197/146 153/174/128
s 4
f 96/198/147 167/199/148 82/120/81 67/119/80
f 167/199/148 169/200/149 142/122/83 82/120/81
s 3
f 111/201/150 110/202/151 80/126/87 79/125/86
f 112/203/152 111/201/150 79/125/86 78/129/90
f 103/204/123 112/203/152 78/129/90 73/131/91
s 4
f 107/205/153 75/135/95 141/134/94 164/206/154
f 109/207/155 108/186/137 77/106/69 76/137/97
f 107/205/153 109/207/155 76/137/97 75/135/95
s 3
f 110/202/151 106/208/156 74/138/98 80/126/87
s 4
f 99/209/157 69/143/103 71/142/102 101/210/158
f 96/198/147 67/119/80 69/143/103 99/209/157
s 3
f 103/169/123 73/145/91 66/144/104 95/185/136
s 4
f 101/210/158 71/142/102 68/103/66 97/187/138
s 3
f 115/194/143 120/211/159 173/212/160 170/213/161 114/195/144
s 5
f 171/214/108 147/152/108 91/151/109 119/215/109
s 2
f 81/117/78 86/154/111 172/216/162 113/197/146
s 5
f 118/217/112 92/158/112 84/157/113 117/218/113
s 3
f 173/212/160 120/211/159 174/219/163
f 174/219/163 120/211/159 175/220/164
s 5
f 118/217/112 121/221/116 93/161/116 92/158/112
f 121/221/116 119/215/109 91/151/109 93/161/116
s 3
f 168/196/145 116/222/165 175/220/164 120/211/159 115/194/143
