<?xml version="1.0" encoding="UTF-8"?>
<svg id="Layer_2" data-name="Layer 2" xmlns="http://www.w3.org/2000/svg" viewBox="0 0 96 96">
  <defs>
    <style>
      .cls-1 {
        fill: #fff;
      }

      .cls-2 {
        opacity: 0;
      }
    </style>
  </defs>
  <g id="Exports">
    <g>
      <rect class="cls-2" width="96" height="96"/>
      <g>
        <path class="cls-1" d="M48,20.5c-13.32,0-20.13,11-20.13,29.49s6.81,25.51,20.13,25.51,20.13-7.02,20.13-25.51-6.81-29.49-20.13-29.49Zm0,51c-9.68,0-16.13-3.66-16.13-21.51,0-11.63,2.8-25.49,16.13-25.49s16.13,13.86,16.13,25.49c0,17.85-6.45,21.51-16.13,21.51Z"/>
        <path class="cls-1" d="M48,31.66c-2.21,0-4,1.79-4,4v8.35c0,2.21,1.79,4,4,4s4-1.79,4-4v-8.35c0-2.21-1.79-4-4-4Z"/>
      </g>
    </g>
  </g>
</svg>