<?xml version="1.0" encoding="UTF-8"?>
<svg id="Layer_2" data-name="Layer 2" xmlns="http://www.w3.org/2000/svg" viewBox="0 0 96 96">
  <defs>
    <style>
      .cls-1 {
        fill: #fff;
      }

      .cls-2 {
        opacity: 0;
      }
    </style>
  </defs>
  <g id="Exports">
    <g>
      <rect class="cls-2" width="96" height="96"/>
      <g>
        <g>
          <path class="cls-1" d="M48,28.85c9.27,0,14.01,7.66,14.01,20.53s-4.74,17.76-14.01,17.76-14.01-4.89-14.01-17.76,4.74-20.53,14.01-20.53m0-4c-5.42,0-18.01,2.39-18.01,24.53,0,7.33,1.46,12.64,4.45,16.26,3.02,3.65,7.59,5.5,13.56,5.5s10.54-1.85,13.56-5.5c2.99-3.61,4.45-8.93,4.45-16.26,0-22.14-12.6-24.53-18.01-24.53h0Z"/>
          <path class="cls-1" d="M48,36.62c-1.54,0-2.78,1.25-2.78,2.78v5.81c0,1.54,1.25,2.78,2.78,2.78s2.78-1.25,2.78-2.78v-5.81c0-1.54-1.25-2.78-2.78-2.78Z"/>
        </g>
        <path class="cls-1" d="M73.84,20.38c1.13,0,2.03,1.08,1.72,2.25l-1.71,6.4c-.22,.84-.97,1.32-1.73,1.32-.45,0-.9-.17-1.26-.52l-4.68-4.68c-.97-.97-.53-2.63,.8-2.99l6.4-1.71c.16-.04,.32-.06,.47-.06m0-3c-.42,0-.84,.06-1.25,.16l-6.4,1.71c-1.65,.44-2.94,1.74-3.38,3.38-.44,1.65,.03,3.42,1.24,4.62l4.68,4.68c.9,.9,2.1,1.4,3.38,1.4,2.17,0,4.07-1.46,4.63-3.55l1.71-6.4c.39-1.45,.09-2.96-.82-4.15-.9-1.18-2.32-1.88-3.79-1.88h0Z"/>
        <path class="cls-1" d="M23.89,65.65c.45,0,.9,.17,1.26,.52l4.68,4.68c.97,.97,.53,2.63-.8,2.99l-6.4,1.71c-.16,.04-.32,.06-.47,.06-1.13,0-2.03-1.08-1.72-2.25l1.71-6.4c.22-.84,.97-1.32,1.73-1.32m0-3c-2.17,0-4.07,1.46-4.63,3.55l-1.71,6.4c-.39,1.45-.09,2.96,.82,4.15,.9,1.18,2.32,1.88,3.79,1.88,.42,0,.84-.06,1.25-.16l6.4-1.71c1.65-.44,2.94-1.74,3.38-3.38,.44-1.65-.03-3.42-1.24-4.62l-4.68-4.68c-.9-.9-2.1-1.4-3.38-1.4h0Z"/>
        <path class="cls-1" d="M22.16,20.38c.15,0,.31,.02,.47,.06l6.4,1.71c1.33,.36,1.77,2.01,.8,2.99l-4.68,4.68c-.36,.36-.81,.52-1.25,.52-.76,0-1.51-.49-1.73-1.32l-1.71-6.4c-.31-1.17,.59-2.25,1.72-2.25m0-3c-1.47,0-2.89,.7-3.79,1.88-.91,1.19-1.21,2.7-.82,4.15l1.71,6.4c.56,2.09,2.46,3.55,4.63,3.55,1.27,0,2.47-.5,3.38-1.4l4.68-4.68c1.2-1.21,1.68-2.98,1.24-4.62s-1.74-2.94-3.38-3.38l-6.4-1.71c-.41-.11-.83-.16-1.25-.16h0Z"/>
        <path class="cls-1" d="M72.11,65.65c.76,0,1.51,.49,1.73,1.32l1.71,6.4c.31,1.17-.59,2.25-1.72,2.25-.15,0-.31-.02-.47-.06l-6.4-1.71c-1.33-.36-1.77-2.01-.8-2.99l4.68-4.68c.36-.36,.81-.52,1.26-.52m0-3c-1.27,0-2.47,.5-3.38,1.4l-4.68,4.68c-1.2,1.2-1.68,2.98-1.24,4.62s1.74,2.94,3.38,3.38l6.4,1.71c.41,.11,.83,.16,1.25,.16,1.47,0,2.89-.7,3.79-1.88,.91-1.19,1.21-2.7,.82-4.15l-1.71-6.4c-.56-2.09-2.46-3.55-4.63-3.55h0Z"/>
      </g>
    </g>
  </g>
</svg>