# WaveFront *.obj file (generated by CINEMA 4D)

v 133.87557983398438 0 34.35231781005859
v 133.87557983398438 18.86725807189941 34.35231781005859
v -133.87557983398438 0 34.35231781005859
v -133.87557983398438 18.86725807189941 34.35231781005859
v -133.87557983398438 18.86725807189941 -15.6055965423584
v -133.87557983398438 0 -15.6055965423584
v -115.12886047363281 0 -34.35231781005859
v -115.12886047363281 18.86725807189941 -34.35231781005859
v 115.12886047363281 18.86725807189941 -34.35231781005859
v 115.12886047363281 0 -34.35231781005859
v 133.87557983398438 0 -15.6055965423584
v 133.87557983398438 18.86725807189941 -15.6055965423584
v -128.38479614257812 18.86725807189941 -28.86153221130371
v -128.38479614257812 0 -28.86153221130371
v 128.38479614257812 18.86725807189941 -28.86153221130371
v 128.38479614257812 0 -28.86153221130371
# 16 vertices

vn 0 0 -1
vn 1 0 0
vn 0 0 1
vn -1 0 0
vn 0 1 0
vn 0 -1 0
vn -0.92387962341309 0 -0.38268315792084
vn -0.70710688829422 0 -0.70710664987564
vn 0.38268327713013 0 -0.92387962341309
vn 0.70710670948029 0 -0.70710682868958
vn -0.38268342614174 0 -0.9238795042038
vn 0.9238795042038 0 -0.38268342614174
# 12 normals

vt 0.09639475494623 0.58124971389771 0
vt 0.09639475494623 0.6062496304512 0
vt 0.11789395660162 0.6062496304512 0
vt 0.11789395660162 0.58124971389771 0
vt 0.1014658510685 0.58124971389771 0
vt 0.1014658510685 0.6062496304512 0
vt 0.119644343853 0.6062496304512 0
vt 0.119644343853 0.58124971389771 0
vt 0.09464436769485 0.58124971389771 0
vt 0.09464436769485 0.6062496304512 0
vt 0.11282286047935 0.6062496304512 0
vt 0.11282286047935 0.58124971389771 0
vt 0.51120758056641 0.37699007987976 0
vt 0.50408107042313 0.37994194030762 0
vt 0.50112915039062 0.38706851005554 0
vt 0.50047814846039 0.43280553817749 0
vt 0.61546671390533 0.37633907794952 0
vt 0.62489414215088 0.43215453624725 0
vt 0.62554514408112 0.38641750812531 0
vt 0.62259322404861 0.37929093837738 0
vt 0.11710879206657 0.6062496304512 0
vt 0.11710879206657 0.58124971389771 0
vt 0.12217989563942 0.6062496304512 0
vt 0.12217989563942 0.58124971389771 0
vt 0.12139473110437 0.6062496304512 0
vt 0.12139473110437 0.58124971389771 0
vt 0.12646582722664 0.6062496304512 0
vt 0.12646582722664 0.58124971389771 0
# 28 texture coordinates

o ruler
usemtl Mat
f 7/1/1 8/2/1 9/3/1 10/4/1
f 11/5/2 12/6/2 2/7/2 1/8/2
f 1/9/3 2/10/3 4/7/3 3/8/3
f 3/9/4 4/10/4 5/11/4 6/12/4
f 8/13/5 13/14/5 5/15/5 4/16/5
f 7/13/6 3/16/6 6/15/6 14/14/6
f 9/17/5 8/13/5 4/16/5 2/18/5
f 9/17/5 2/18/5 12/19/5 15/20/5
f 1/18/6 3/16/6 7/13/6 10/17/6
f 10/17/6 16/20/6 11/19/6 1/18/6
f 5/11/7 13/21/8 14/22/8 6/12/7
f 9/3/9 15/23/10 16/24/10 10/4/9
f 13/21/8 8/25/11 7/26/11 14/22/8
f 15/23/10 12/27/12 11/28/12 16/24/10

