# WaveFront *.obj file (generated by CINEMA 4D)

v -14.90579700469971 357.72769165039062 -12.11332130432129
v 14.90571594238281 357.72769165039062 -12.11332130432129
v -14.90579319000244 338.66552734375 34.17973709106445
v 14.90571880340576 338.66552734375 34.17973709106445
v -14.90579700469971 357.72769165039062 13.94447803497314
v 14.90571594238281 357.72769165039062 13.94447803497314
v -14.90579509735107 348.09005737304688 31.20285034179688
v -14.90579605102539 355.31826782226562 23.52980613708496
v 14.90571784973145 348.090087890625 31.20285034179688
v 14.90571594238281 355.31829833984375 23.52980613708496
v -14.90579414367676 342.52206420898438 -22.53622627258301
v 14.90571880340576 342.52206420898438 -22.53622627258301
v 14.90572071075439 327.31646728515625 -19.24362182617188
v -14.90579128265381 327.31646728515625 -19.24362182617188
v 14.90572357177734 312.11083984375 -29.66652870178223
v -14.90578842163086 312.11083984375 -29.66652870178223
v 14.90572643280029 296.90524291992188 -26.37392234802246
v -14.90578651428223 296.90524291992188 -26.37392234802246
v 14.90572929382324 281.69964599609375 -36.79682922363281
v -14.90578365325928 281.69961547851562 -36.79682922363281
v 14.90573120117188 266.4940185546875 -33.50422286987305
v -14.90578079223633 266.4940185546875 -33.50422286987305
v 14.90573406219482 251.28840637207031 -43.92713165283203
v -14.90577793121338 251.28840637207031 -43.92713165283203
v 14.90573692321777 236.08279418945312 -40.63452529907227
v -14.90577602386475 236.08279418945312 -40.63452529907227
v 14.90573978424072 220.87718200683594 -51.05743026733398
v -14.9057731628418 220.87718200683594 -51.05743026733398
v 14.90574264526367 205.67156982421875 -47.76482391357422
v -14.90577030181885 205.67156982421875 -47.76482391357422
v 14.9057445526123 190.46595764160156 -58.1877326965332
v -14.9057674407959 190.46595764160156 -58.1877326965332
v 14.90574741363525 175.26036071777344 -54.89512634277344
v -14.90576553344727 175.26034545898438 -54.89512634277344
v 14.9057502746582 160.05474853515625 -65.31803131103516
v -14.90576267242432 160.05473327636719 -65.31803131103516
v 14.90575313568115 144.84913635253906 -62.02542877197266
v -14.90575981140137 144.84912109375 -62.02542877197266
v 14.90575504302979 129.64352416992188 -72.44833374023438
v -14.90575695037842 129.64350891113281 -72.44833374023438
v 14.90575790405273 114.43791198730469 -69.15573120117188
v -14.90575408935547 114.43790435791016 -69.15573120117188
v -14.90575408935547 110.17636871337891 -60.16751480102539
v -14.90575885772705 139.57521057128906 40.97052383422852
v 14.90575408935547 136.60978698730469 48.12969207763672
v -14.90575790405273 136.60978698730469 48.12969207763672
v -14.90575885772705 139.13703918457031 -14.99843406677246
v 14.90576076507568 100.15276336669922 -70.02435302734375
v 32.34081649780273 99.07978820800781 31.97677803039551
v -32.3408088684082 91.95507049560547 -32.60612487792969
v 14.90575408935547 139.13703918457031 -14.99843406677246
v -14.90575218200684 100.15275573730469 -70.02435302734375
v 14.90575408935547 139.57521057128906 40.97052383422852
v 32.34081649780273 103.22312927246094 19.08618354797363
v -32.34080505371094 76.29155731201172 -52.24124908447266
v 32.3408203125 76.29156494140625 -52.24124908447266
v 14.90575885772705 110.17637634277344 -60.16751480102539
v 32.3408203125 91.95508575439453 -32.60612487792969
v 32.34082794189453 51.89689636230469 -64.08941650390625
v 32.34082794189453 42.83812713623047 -58.75482940673828
v -32.34081268310547 120.47904968261719 60.06668090820312
v 32.34081268310547 120.47906494140625 60.06668090820312
v -32.34081649780273 139.57521057128906 40.97052383422852
v 32.34081268310547 139.57522583007812 40.97052383422852
v -32.34081649780273 133.98207092285156 54.47354507446289
v 32.34081268310547 133.98208618164062 54.47354507446289
v -32.34081649780273 139.57521057128906 -14.31502246856689
v 32.34081268310547 139.57522583007812 -14.31502246856689
v 32.3408317565918 14.64282989501953 33.58338928222656
v -32.34079360961914 14.64281940460205 33.58338928222656
v -32.34079360961914 18.63998031616211 -84.71982574462891
v -32.34080505371094 81.21450042724609 -78.05831146240234
v 32.3408203125 81.21450805664062 -78.05831146240234
v 32.3408317565918 18.63999176025391 -84.71982574462891
v -32.34081268310547 110.17636871337891 -60.16751480102539
v 32.34081649780273 110.17638397216797 -60.16751480102539
v 32.34083557128906 0.00000844738042 -67.84034729003906
v -32.34079360961914 -0.00000279272854 -67.84034729003906
v -32.34079360961914 5.54125022888184 -80.45294189453125
v -32.3408088684082 97.73011779785156 -72.40668487548828
v 32.34081649780273 97.73012542724609 -72.40668487548828
v 32.34083557128906 5.54126167297363 -80.45294189453125
v -32.34079360961914 10.57072734832764 60.06668090820312
v 32.3408317565918 10.57073879241943 60.06668090820312
v 32.34083557128906 5.21085119247437 51.09086227416992
v -32.34079360961914 5.21083974838257 51.09086227416992
v -32.34079360961914 5.34354639053345 57.09984970092773
v 32.34083557128906 5.34355783462524 57.09984970092773
v -32.34080505371094 67.49762725830078 35.28231048583984
v -32.34080123901367 55.3887825012207 27.29349327087402
v 32.34082412719727 55.3887939453125 27.29349327087402
v -32.3408088684082 103.22312164306641 19.08618354797363
v -32.34080123901367 51.89688491821289 -64.08941650390625
v -32.3408088684082 99.07977294921875 31.97677803039551
v 32.34082412719727 67.49764251708984 35.28231048583984
v -32.34080123901367 42.83811569213867 -58.75482940673828
# 96 vertices

vn 0 0.88469988107681 -0.4661611020565
vn 0 1 0
vn -0.00000011676838 0.19261729717255 -0.98127394914627
vn 0.00000003399765 -0.07618373632431 -0.99709379673004
vn -0.00000003925082 0.51669758558273 -0.85616797208786
vn -0.0000001307391 0.51669746637344 -0.8561680316925
vn -0.00000031275636 0.73599076271057 0.67699158191681
vn 0 0.06887618452311 0.99762523174286
vn -0.00000007921154 0.73599076271057 0.67699158191681
vn 0 0.19261693954468 -0.98127400875092
vn 0 0.19261690974236 -0.98127400875092
vn 1 0.00000017140718 -0.00000000499776
vn 1 0.00000017601737 -0.00000001988206
vn 1 0.000000178425 -0.0000000177855
vn 1 0.00000017919467 0.0000000105845
vn 1 0.00000017309937 -0.00000006953271
vn 0 0 0
vn -0.00000010333343 0.19261731207371 -0.98127394914627
vn 1 0.00000018004737 0.00000001550788
vn 1 0.00000022019427 0.00000001244592
vn 1 0.0000001790136 0.00000002290098
vn 1 0.00000018703966 0.00000000476011
vn 1 0.00000014864509 0.00000003476612
vn 1 0.00000016936787 0.0000000113591
vn -0.00000022144049 0.7011501789093 -0.71301364898682
vn -0.00000013428722 0.58836299180984 -0.80859690904617
vn 1 0.00000017918933 -0.0000000116885
vn 1 0.00000018345018 -0.00000001529948
vn -0.00000049521771 0.9698303937912 0.2437806725502
vn -0.00000064277026 0.87714660167694 0.48022267222404
vn -0.00000046656177 0.53168988227844 0.84693908691406
vn -0.00000015416515 0.3011971116066 0.9535619020462
vn 1 0.00000016853527 0.00000001491016
vn 1 0.00000018815581 -0.00000000000042
vn 1 0.00000018815572 0
vn 0.00000011839451 -0.67123538255692 -0.74124425649643
vn 0.00000005522696 -0.30972918868065 -0.95082479715347
vn 0 0.19261689484119 -0.98127400875092
vn 1 0.00000018702875 -0.00000002351623
vn 1 0.00000020093825 -0.00000001083294
vn 1 0.00000017311923 -0.00000003619951
vn -0.00000015117773 0.19261711835861 -0.98127400875092
vn -1 -0.00000022448624 -0.00000005119015
vn -1 -0.00000034101615 -0.00000014125364
vn -1 -0.00000024468278 -0.00000005495544
vn 1 0.00000018815574 0
vn -0.00000009219625 0.19261722266674 -0.98127394914627
vn 1 0.00000017465919 0.00000002234165
vn 1 0.00000014614729 0.00000004541928
vn 1 0.00000017841018 0.00000003442709
vn -1 -0.00000019119221 0.00000001600587
vn -1 -0.00000018851385 0.00000000279968
vn 0.00000005898147 0.1926172375679 -0.98127394914627
vn -1 -0.00000016898622 -0.00000001488444
vn -1 -0.00000017129553 0.00000001319973
vn -1 -0.00000016602894 -0.00000000167578
vn 0.00000008659624 -0.49361217021942 0.86968213319778
vn 0.00000015149426 -0.85857146978378 0.51269394159317
vn 0 0.19261722266674 -0.98127394914627
vn -1 -0.00000017027357 -0.00000001698079
vn -1 -0.00000017136534 0.00000003167457
vn -1 -0.00000016427093 0.0000000221377
vn 0.00000017690745 -0.99975621700287 0.02207930758595
vn 0 0.19261719286442 -0.98127394914627
vn -1 -0.00000017140718 0.00000000499782
vn -1 -0.00000016786593 -0.00000001488422
vn -1 -0.00000016099645 0.00000001507885
vn -1 -0.00000011962061 0.00000004371727
vn -1 -0.00000014049365 -0.00000006953252
vn -1 -0.00000018815574 0
vn -1 -0.00000016795416 -0.00000002267098
vn -1 -0.00000014049371 -0.00000006953221
vn -1 -0.00000016886383 -0.00000001879109
vn -1 -0.00000018421461 -0.00000002216251
vn -1 -0.00000018815578 0.00000000000021
vn -1 -0.00000016475545 -0.00000004267287
vn -1 -0.00000019088483 0.00000001163988
vn -1 -0.000000188195 -0.00000006535357
vn -1 -0.00000015898662 -0.00000006344232
vn 0.00000002910913 0.19261720776558 -0.98127394914627
vn -0.00000013282408 0.1926171630621 -0.98127400875092
vn -1 -0.00000012977824 -0.00000006153107
vn -0.00000013048732 0.84182721376419 -0.53974705934525
vn 0.00646189879626 0.95906710624695 -0.28310519456863
vn 0.00000006474492 -0.4368839263916 0.8995178937912
vn 0.0000001045373 -0.62473058700562 0.78084033727646
vn -0.00646264431998 0.95906710624695 -0.28310513496399
vn -0.00000042771003 0.84182727336884 -0.5397469997406
vn 0.00000016875418 -0.97705620527267 0.21298171579838
vn -0.0000000459875 0.58836305141449 -0.80859684944153
vn 0.00000003760254 0.70115029811859 -0.71301352977753
vn 0.01240922510624 0.99991536140442 -0.00391341978684
vn -0.00000003936632 0.32376700639725 -0.94613683223724
vn -0.01241009961814 0.99991536140442 -0.00391341978684
vn 0.0000001608891 -0.91553670167923 -0.40223452448845
vn 0.00000016887115 -0.98973840475082 0.14289122819901
vn 0.00000017022614 -0.98465895652771 -0.17448984086514
vn 0.00000015442976 -0.88036870956421 -0.47428995370865
vn 0 0 1
vn -0.00000001686244 0.10585913062096 -0.99438112974167
vn 1 0.00000065251112 0.00000003535177
vn 1 0.00000032341322 0.00000000118394
vn 1 0.00000033133261 0.00000000398604
vn -0.0000001137419 0.55069714784622 -0.83470511436462
vn -0.0000001578541 0.84393692016602 -0.53644239902496
vn 1 0.00000015886422 -0.00000001589998
vn 1 0.00000017074332 -0.00000001169682
vn 1 0.00000009590723 0.00000002524072
vn 1 0.00000014386083 0.00000003786108
vn 1 0.00000006248009 0.00000001755706
vn 1 0 0
vn 1 0.00000011482729 0.00000002030976
vn 1 0.00000013098955 0.00000000412906
vn 1 0.00000012497563 -0.00000003791289
vn -0.00000009730483 0.9238795042038 0.38268351554871
vn -0.0000001057227 0.79717516899109 0.60374808311462
vn -0.00000032309296 0.79717516899109 0.60374808311462
vn -0.0000007054922 0.9238795042038 0.38268351554871
vn -0.00000008977005 0.50743699073792 0.86168885231018
vn -0.00000015911075 0.90180116891861 0.43215122818947
vn -0.00000008952573 0.38268348574638 0.9238795042038
vn 0.0000001148044 -0.63038074970245 -0.77628606557846
vn 0.00000016891876 -0.95202988386154 -0.3060051202774
vn 1 0.00000018378736 -0.00000002726318
vn 1 0.00000015486816 -0.00000002136908
vn 1 0.00000021360864 0.00000006650412
vn 1 0.00000033986649 0.0000001493179
vn 1 0.00000023366367 0.00000004860544
vn 1 0.00000015047972 0.00000002509723
vn 1 0.00000018056225 -0.0000000017508
vn 1 0.0000002292262 0.00000000114717
vn -1 -0.0000002031429 -0.00000004661467
vn -1 -0.00000020346336 -0.0000000037885
vn -1 -0.00000022562199 -0.00000004046724
vn -1 -0.00000018750571 -0.00000005012764
vn -1 -0.00000014309792 -0.00000011672157
vn -1 -0.00000009539862 -0.00000007781438
vn -1 0 0
vn -1 -0.00000010382779 -0.00000004930297
vn 0.00000002342197 -0.10409597307444 -0.9945672750473
vn -1 -0.00000015574167 -0.00000007395445
vn -1 -0.00000013418227 -0.00000001339026
vn -1 -0.00000020127339 -0.00000002008539
vn -1 -0.00000016622128 -0.0000000061584
vn -1 -0.00000018418001 -0.00000002774979
vn -1 -0.00000012278667 -0.00000001849986
vn 0.00000013916859 -0.78173387050629 0.62361216545105
# 147 normals

vt 0.44614899158478 0.28154230117798 0
vt 0.44614899158478 0.29381537437439 0
vt 0.46018999814987 0.29381537437439 0
vt 0.46018999814987 0.28154230117798 0
vt 0.46601563692093 0.27363288402557 0
vt 0.46601563692093 0.29863286018372 0
vt 0.49101561307907 0.29863286018372 0
vt 0.49101561307907 0.27363288402557 0
vt 0.47159451246262 0.31241357326508 0
vt 0.47159451246262 0.308709025383 0
vt 0.46367779374123 0.308709025383 0
vt 0.46367779374123 0.31241357326508 0
vt 0.46018999814987 0.28018343448639 0
vt 0.46018999814987 0.26139235496521 0
vt 0.46018999814987 0.26475071907043 0
vt 0.46018999814987 0.30654430389404 0
vt 0.46018999814987 0.25984168052673 0
vt 0.51605099439621 0.87686282396317 0
vt 0.46018999814987 0.29832983016968 0
vt 0.46018999814987 0.3019437789917 0
vt 0.46018999814987 0.30334603786469 0
vt 0.46018999814987 0.26810908317566 0
vt 0.51605099439621 0.84977304935455 0
vt 0.46018999814987 0.27818393707275 0
vt 0.46018999814987 0.27663314342499 0
vt 0.14854234457016 0.4459091424942 0
vt 0.1456013917923 0.44976329803467 0
vt 0.14925318956375 0.44497764110565 0
vt 0.46018999814987 0.25803411006927 0
vt 0.46018999814987 0.25890922546387 0
vt 0.44614899158478 0.29832983016968 0
vt 0.44614899158478 0.3019437789917 0
vt 0.44614899158478 0.30334603786469 0
vt 0.46018999814987 0.27482569217682 0
vt 0.46018999814987 0.27327489852905 0
vt 0.51605099439621 0.83789765834808 0
vt 0.46018999814987 0.25648331642151 0
vt 0.17630186676979 0.44183158874512 0
vt 0.17245864868164 0.44016337394714 0
vt 0.46018999814987 0.25467586517334 0
vt 0.46018999814987 0.25426661968231 0
vt 0.51605099439621 0.76905071735382 0
vt 0.46018999814987 0.25312507152557 0
vt 0.14257852733135 0.49677693843842 0
vt 0.13861666619778 0.49459004402161 0
vt 0.13697558641434 0.48931002616882 0
vt 0.85295337438583 0.37477016448975 0
vt 0.46018999814987 0.26320004463196 0
vt 0.51605099439621 0.46599221229553 0
vt 0.46018999814987 0.27146744728088 0
vt 0.46018999814987 0.2665581703186 0
vt 0.46018999814987 0.26991653442383 0
vt 0.46018999814987 0.30991625785828 0
vt 0.13697558641434 0.4676924943924 0
vt 0.14764150977135 0.48075294494629 0
vt 0.44614899158478 0.26810908317566 0
vt 0.44614899158478 0.30654430389404 0
vt 0.44614899158478 0.27146744728088 0
vt 0.51605099439621 0.90542209148407 0
vt 0.1748261898756 0.49677693843842 0
vt 0.17635987699032 0.49561703205109 0
vt 0.44614899158478 0.26475071907043 0
vt 0.44614899158478 0.30991625785828 0
vt 0.17639884352684 0.49326717853546 0
vt 0.44614899158478 0.28018343448639 0
vt 0.44614899158478 0.26139235496521 0
vt 0.44614899158478 0.2665581703186 0
vt 0.39712715148926 0.80728846788406 0
vt 0.44614899158478 0.26320004463196 0
vt 0.44614899158478 0.27818393707275 0
vt 0.44614899158478 0.27327489852905 0
vt 0.44614899158478 0.27482569217682 0
vt 0.44614899158478 0.25648331642151 0
vt 0.44614899158478 0.25803411006927 0
vt 0.44614899158478 0.27663314342499 0
vt 0.44614899158478 0.25890922546387 0
vt 0.44614899158478 0.26991653442383 0
vt 0.44614899158478 0.25312507152557 0
vt 0.44614899158478 0.25467586517334 0
vt 0.44614899158478 0.25984168052673 0
vt 0.39712715148926 0.43754804134369 0
vt 0.44614899158478 0.25426661968231 0
vt 0.13710418343544 0.46742534637451 0
vt 0.11026495695114 0.45102488994598 0
vt 0.11026495695114 0.45566189289093 0
vt 0.08495056629181 0.45566189289093 0
vt 0.08495056629181 0.45102488994598 0
vt 0.08495056629181 0.46334648132324 0
vt 0.11026495695114 0.46334648132324 0
vt 0.11026495695114 0.48357725143433 0
vt 0.08495056629181 0.48357725143433 0
vt 0.15409894287586 0.44276762008667 0
vt 0.17792770266533 0.44676303863525 0
vt 0.1736314445734 0.48642158508301 0
vt 0.08495056629181 0.48991584777832 0
vt 0.11026495695114 0.48991584777832 0
vt 0.11026495695114 0.48678934574127 0
vt 0.08495056629181 0.48678934574127 0
vt 0.16167634725571 0.48396193981171 0
vt 0.15812353789806 0.48708593845367 0
vt 0.14885719120502 0.48579323291779 0
vt 0.50406873226166 0.79411613941193 0
vt 0.48861467838287 0.7460361123085 0
vt 0.15094763040543 0.46054041385651 0
vt 0.13784568011761 0.49210941791534 0
vt 0.08495056629181 0.45311272144318 0
vt 0.11026495695114 0.45311272144318 0
vt 0.11026495695114 0.48862218856812 0
vt 0.08495056629181 0.48862218856812 0
vt 0.15554337203503 0.45286273956299 0
vt 0.53064280748367 0.55323153734207 0
vt 0.16535875201225 0.45031583309174 0
vt 0.16270089149475 0.44822990894318 0
vt 0.58906537294388 0.47999548912048 0
vt 0.50910276174545 0.40478146076202 0
vt 0.8040971159935 0.35885524749756 0
# 116 texture coordinates

o saw
usemtl Mat
f 1/1/1 5/2/2 6/3/2 2/4/1
f 39/5/3 41/6/4 42/7/4 40/8/3
f 52/5/5 42/6/4 41/7/4 48/8/6
f 45/9/7 4/10/8 3/11/8 46/12/9
f 14/5/10 11/6/11 12/7/11 13/8/10
f 51/13/12 33/14/13 29/15/14 53/16/15
f 33/14/13 31/17/16 29/15/14
f 37/5/18 39/6/3 40/7/3 38/8/18
f 6/3/19 10/19/20 9/20/20 4/21/21
f 29/15/14 25/22/22 53/16/15
f 2/4/23 6/3/19 13/24/24 12/25/23
f 48/26/6 57/27/25 76/27/25 81/28/26
f 37/29/27 33/14/13 51/13/12 57/30/28
f 5/2/29 8/31/30 10/19/30 6/3/29
f 8/31/30 7/32/31 9/20/31 10/19/30
f 7/32/31 3/33/32 4/21/32 9/20/31
f 11/5/11 1/6/1 2/7/1 12/8/11
f 17/34/33 15/35/34 13/24/24
f 37/29/27 35/37/35 33/14/13
f 79/38/36 71/39/37 74/39/37 82/38/36
f 4/21/21 17/34/33 13/24/24 6/3/19
f 13/5/10 15/6/38 16/7/38 14/8/10
f 41/40/39 57/30/28 48/41/40
f 57/30/28 41/40/39 39/43/41 37/29/27
f 15/5/38 17/6/42 18/7/42 16/8/38
f 61/44/43 65/45/44 63/46/45
f 29/15/14 27/48/46 25/22/22
f 17/5/42 19/6/47 20/7/47 18/8/42
f 25/22/22 21/50/48 53/16/15
f 25/22/22 23/51/35 21/50/48
f 17/34/33 4/21/21 21/50/48 19/52/49
f 53/16/15 21/50/48 4/21/21 45/53/50
f 67/54/51 92/55/52 63/46/45
f 19/5/47 21/6/53 22/7/53 20/8/47
f 26/56/54 44/57/55 22/58/56
f 83/60/57 87/61/58 88/61/58 84/60/57
f 21/5/53 23/6/59 24/7/59 22/8/53
f 44/57/55 26/56/54 30/62/60
f 44/57/55 46/63/61 3/33/62 22/58/56
f 87/61/58 86/64/63 85/64/63 88/61/58
f 23/5/59 25/6/64 26/7/64 24/8/59
f 47/65/65 44/57/55 30/62/60 34/66/66
f 5/2/67 3/33/62 7/32/68 8/31/68
f 22/58/56 24/67/69 26/56/54
f 25/5/64 27/6/64 28/7/64 26/8/64
f 26/56/54 28/69/70 30/62/60
f 14/70/71 16/71/72 18/72/73
f 34/66/66 36/73/70 38/74/74
f 27/5/64 29/6/59 30/7/59 28/8/64
f 14/70/71 5/2/67 1/1/75 11/75/75
f 47/65/65 34/66/66 38/74/74 43/76/76
f 22/58/56 3/33/62 18/72/73 20/77/77
f 43/76/76 38/74/74 40/78/78 42/79/79
f 29/5/59 31/6/80 32/7/80 30/8/59
f 35/5/18 37/6/18 38/7/18 36/8/18
f 30/62/60 32/80/69 34/66/66
f 31/5/80 33/6/81 34/7/81 32/8/80
f 42/79/79 52/82/82 43/76/76
f 3/33/62 5/2/67 14/70/71 18/72/73
f 33/5/81 35/6/18 36/7/18 34/8/81
f 43/27/83 75/27/83 67/54/84 47/83/84
f 59/84/85 56/85/86 55/86/86 93/87/85
f 51/83/87 68/54/87 76/27/88 57/27/88
f 50/88/89 58/89/89 54/90/89 92/91/89
f 80/28/90 52/26/5 48/26/6 81/28/26
f 75/27/91 43/27/91 52/26/5 80/28/90
f 67/54/84 63/46/92 44/46/92 47/83/84
f 72/92/93 80/28/90 81/28/26 73/92/93
f 68/54/87 51/83/87 53/46/94 64/46/94
f 78/93/95 79/38/36 82/38/36 77/93/95
f 77/93/96 69/94/97 70/94/97 78/93/96
f 69/94/97 85/64/98 86/64/98 70/94/97
f 61/44/99 83/60/99 84/60/99 62/44/99
f 71/39/100 72/92/100 73/92/100 74/39/100
f 85/64/101 69/94/102 84/60/103 88/61/101
f 89/95/104 95/96/104 91/97/105 90/98/105
f 84/60/103 69/94/102 91/99/106 95/100/107
f 62/44/108 84/60/103 95/100/107 49/101/109
f 64/46/110 66/45/111 62/44/108
f 64/46/110 62/44/108 49/101/109 54/55/112
f 54/55/112 68/54/113 64/46/110
f 58/104/114 76/27/114 68/54/113 54/55/112
f 63/46/115 65/45/116 46/105/9 44/46/115
f 45/105/7 66/45/117 64/46/118 53/46/118
f 65/45/116 66/45/117 45/105/7 46/105/9
f 59/84/119 93/87/119 96/106/120 60/107/120
f 90/98/105 91/97/105 60/107/120 96/106/120
f 65/45/116 61/44/121 62/44/121 66/45/117
f 49/108/122 94/109/122 92/91/123 54/90/123
f 56/110/124 81/28/125 76/27/114 58/104/114
f 77/93/126 82/38/127 74/39/128
f 60/112/129 77/93/126 74/39/128 59/113/130
f 59/113/130 74/39/128 73/92/131 56/110/124
f 73/92/131 81/28/125 56/110/124
f 91/99/106 69/94/102 77/93/126 60/112/129
f 55/110/132 50/104/133 75/27/133 80/28/134
f 80/28/134 72/92/135 55/110/132
f 93/113/136 55/110/132 72/92/135 71/39/137
f 71/39/137 79/38/138 78/93/139
f 94/109/122 49/108/122 95/96/140 89/95/140
f 71/39/137 78/93/139 96/112/141 93/113/136
f 78/93/139 70/94/142 90/99/143 96/112/141
f 63/46/45 92/55/52 94/101/144 61/44/43
f 61/44/43 94/101/144 89/100/145 83/60/146
f 50/104/133 92/55/52 67/54/51 75/27/133
f 83/60/146 89/100/145 90/99/143 70/94/142
f 58/89/147 50/88/147 55/86/86 56/85/86
f 83/60/146 70/94/142 86/64/138 87/61/138

