# WaveFront *.obj file (generated by CINEMA 4D)

v -18.9895191192627 263.064453125 -20.76542663574219
v 11.93716812133789 247.60110473632812 -20.76542663574219
v -27.96823501586914 309.95330810546875 19.64012718200684
v -41.43630981445312 234.13302612304688 -20.76542663574219
v -51.91147613525391 248.09992980957031 -20.76542663574219
v -46.42448425292969 284.01480102539062 -20.76542663574219
v -36.4481315612793 299.97695922851562 -20.76542663574219
v -41.43630981445312 234.13302612304688 19.64012718200684
v -18.9895191192627 263.064453125 19.64012718200684
v 11.93716812133789 247.60110473632812 19.64012718200684
v -51.91147613525391 248.09992980957031 19.64012718200684
v -46.42448425292969 284.01480102539062 19.64012718200684
v -36.4481315612793 299.97695922851562 19.64012718200684
v -27.96823501586914 309.95330810546875 -20.76542663574219
v 11.33265018463135 247.44856262207031 -8.60972499847412
v -34.28396987915039 235.93783569335938 -8.60972595214844
v -34.28396987915039 235.93783569335938 7.48442411422729
v 11.33265113830566 247.44856262207031 7.48442506790161
v 14.31758975982666 235.61935424804688 -8.60972499847412
v -21.26041793823242 227.12420654296875 -8.60972595214844
v -21.26041793823242 227.12420654296875 7.48442411422729
v 14.31759071350098 235.61935424804688 7.48442506790161
# 22 vertices

vn 0.99997705221176 0.00677715055645 0
vn 0.89348405599594 0.44909486174583 0
vn 0.60205268859863 0.79845637083054 0
vn 0.05194161459804 -0.99865013360977 -0.0000000061557
vn -0.3548019528389 -0.93494147062302 0.00000000231354
vn -0.89557284116745 -0.44491493701935 0
vn -0.99798291921616 -0.06348326802254 0
vn -0.85897892713547 0.51201099157333 0
vn -0.68661868572235 0.72701776027679 0
vn -0.6318057179451 0.77512675523758 0
vn 0 0 -1
vn 0 0 0
vn 0 0 1
vn 0.06470957398415 -0.99790412187576 0.00000000132353
vn -0.20662024617195 -0.97842121124268 0.00000000434691
vn 0.06470941007137 -0.99790412187576 0.00000000082147
vn -0.20662024617195 -0.97842121124268 0.00000000570229
vn 0.06470941007137 -0.99790412187576 0.00000000269752
vn 0.06470957398415 -0.99790412187576 0.00000000319959
vn 0.00000003291853 0.00000005192864 -1
vn -0.00000002251263 -0.00000001325499 1
vn 0.99790412187576 0.06470940262079 -0.00000004420859
# 22 normals

vt 0.45978054404259 0.37444114685059 0
vt 0.46328321099281 0.35614919662476 0
vt 0.47534802556038 0.35011684894562 0
vt 0.47627666592598 0.34544253349304 0
vt 0.46239730715752 0.34212851524353 0
vt 0.4545264840126 0.34486281871796 0
vt 0.4504399895668 0.35031139850616 0
vt 0.4525805413723 0.36432218551636 0
vt 0.45647242665291 0.37054932117462 0
vt 0.34241917729378 0.85627490282059 0
vt 0.47511219978333 0.35005736351013 0
vt 0.45731666684151 0.34556686878204 0
vt 0.47511222958565 0.35005736351013 0
# 13 texture coordinates

o wrench03
usemtl Mat
f 14/1/1 3/1/1 9/2/2 1/2/2
f 1/2/2 9/2/2 10/3/3 2/3/3
f 19/4/4 22/4/4 21/5/5 20/5/5
f 4/6/6 8/6/6 11/7/7 5/7/7
f 5/7/7 11/7/7 12/8/8 6/8/8
f 6/8/8 12/8/8 13/9/9 7/9/9
f 7/9/9 13/9/9 3/1/10 14/1/10
f 7/9/11 14/1/11 1/2/11 6/8/11
f 1/2/11 2/3/11 4/6/11 5/7/11
f 1/2/11 5/7/11 6/8/11
f 12/8/13 11/7/13 9/2/13
f 9/2/13 11/7/13 8/6/13 10/3/13
f 9/2/13 3/1/13 13/9/13 12/8/13
f 2/3/14 15/11/14 16/12/15 4/6/16
f 4/6/16 16/12/15 17/12/17 8/6/18
f 8/6/18 17/12/17 18/13/19 10/3/19
f 10/3/19 18/13/19 15/11/14 2/3/14
f 15/11/20 19/4/20 20/5/20 16/12/20
f 16/12/15 20/5/5 21/5/5 17/12/17
f 17/12/21 21/5/21 22/4/21 18/13/21
f 18/13/22 22/4/22 19/4/22 15/11/22

v 12.47043800354004 314.68634033203125 -25
v 40.90303802490234 296.2301025390625 -25
v 53.87229537963867 246.84715270996094 -25
v 39.90540313720703 222.90391540527344 -25
v 22.4467887878418 202.95121765136719 -25
v 16.46097946166992 174.01979064941406 -25
v 20.08557510375977 29.29118919372559 -25
v 11.18454933166504 8.5902624130249 -25
v -24.94087600708008 175.01742553710938 -25
v -31.42550468444824 200.45712280273438 -25
v -55.36874771118164 242.85661315917969 -25
v 7.48226308822632 254.82823181152344 -25
v 18.45624923706055 272.78567504882812 -25
v 40.90303802490234 296.2301025390625 25
v 22.4467887878418 202.95121765136719 25
v 20.08557510375977 29.29118919372559 25
v -32.21257781982422 8.5902624130249 25
v -41.26898193359375 29.29118919372559 25
v -24.94087600708008 175.01742553710938 25
v -45.39239501953125 220.40982055664062 25
v -55.8675651550293 235.8731689453125 25
v -55.36874771118164 242.85661315917969 25
v 7.48226308822632 254.82823181152344 25
v 18.45624923706055 272.78567504882812 25
v 55.8675651550293 271.78802490234375 -25
v -10.4199857711792 0 -25
v -32.21257781982422 8.5902624130249 -25
v -41.26898193359375 29.29118919372559 -25
v -45.39239501953125 220.40982055664062 -25
v -55.8675651550293 235.8731689453125 -25
v 12.47043800354004 314.68634033203125 25
v 55.8675651550293 271.78802490234375 25
v 53.87229537963867 246.84715270996094 25
v 39.90540313720703 222.90391540527344 25
v 16.46097946166992 174.01979064941406 25
v 11.18454933166504 8.5902624130249 25
v -10.4199857711792 0 25
v -31.42550468444824 200.45712280273438 25
v -2.76136803627014 43.10445785522461 25
v -2.76136803627014 15.30504131317139 25
v -26.78646087646484 29.29118919372559 -25
v -26.83636856079102 29.20475006103516 25
v -18.81136703491211 15.30504131317139 -25
v -18.81136703491211 15.30504131317139 25
v 5.21372556686401 29.29118919372559 25
v 5.26363229751587 29.20475006103516 -25
v -2.76136803627014 15.30504131317139 -25
v -2.76136803627014 43.10445785522461 -25
v -18.81136703491211 43.10445785522461 -25
v -18.81136703491211 43.10445785522461 25
# 50 vertices

vn 0.54447078704834 0.83877980709076 0
vn 0.716373026371 0.6977174282074 0
vn 0.97256737947464 0.23262132704258 0
vn 0.95416104793549 -0.2992936372757 0
vn 0.81186765432358 -0.58384150266647 0
vn 0.8954194188118 -0.44522365927696 0
vn 0.99599850177765 -0.08937013149261 0
vn 0.98190551996231 -0.18937148153782 0
vn 0.6972690820694 -0.71680951118469 0
vn 0.00148313457612 -0.99999892711639 0
vn -0.6939343214035 -0.72003829479218 0
vn -0.98870980739594 -0.14984312653542 0
vn -0.9976202249527 -0.06894820183516 0
vn -0.90890049934387 -0.41701307892799 0
vn -0.82359945774078 -0.56717187166214 0
vn -0.96586060523987 -0.25906226038933 0
vn -0.99745869636536 0.07124704867601 0
vn -0.18711207807064 0.9823385477066 0
vn -0.56895482540131 0.82236880064011 0
vn -0.97940039634705 0.20192794501781 0
vn -0.98994946479797 -0.14142139256001 0
vn 0.99999898672104 -0.00134231464472 0.00049869209761
vn 0.86736416816711 0.49767324328423 0.00086441106396
vn 0.86602538824081 -0.5 0.00000001749146
vn -0.99999898672104 -0.00134231464472 -0.00049712968757
vn -0.86736416816711 0.49767324328423 -0.0008617110434
vn 0 -1 0
vn 0 1 0
vn -0.86602538824081 -0.5 -0.00000000928421
# 29 normals

vt 0.47675058245659 0.37243986129761 0
vt 0.48753398656845 0.36544013023376 0
vt 0.493209451437 0.35617029666901 0
vt 0.49245268106461 0.34671115875244 0
vt 0.48715558648109 0.33763039112091 0
vt 0.48053422570229 0.33006310462952 0
vt 0.4782640337944 0.31909048557281 0
vt 0.04140800237656 0.68436777591705 0
vt 0.04254374653101 0.6390186548233 0
vt 0.03975469619036 0.63253217935562 0
vt 0.03298515081406 0.6298406124115 0
vt 0.02615669369698 0.63253217935562 0
vt 0.0233189612627 0.6390186548233 0
vt 0.0284352004528 0.68468034267426 0
vt 0.46256193518639 0.31946885585785 0
vt 0.46010255813599 0.32911717891693 0
vt 0.45480546355248 0.33668446540833 0
vt 0.45083263516426 0.34254908561707 0
vt 0.45102182030678 0.3451976776123 0
vt 0.39765626192093 0.20625007152557 0
vt 0.39765626192093 0.23125004768372 0
vt 0.42265623807907 0.23125004768372 0
vt 0.42265623807907 0.20625007152557 0
vt 0.47485876083374 0.34973800182343 0
vt 0.47902077436447 0.35654866695404 0
vt 0.58729380369186 0.85337495803833 0
vt 0.5549623966217 0.7979496717453 0
vt 0.02785690128803 0.6390186548233 0
vt 0.0303558036685 0.63463634252548 0
vt 0.03538490086794 0.64334696531296 0
vt 0.03789944201708 0.63899159431458 0
vt 0.08776515722275 0.51874530315399 0
vt 0.08776515722275 0.54374527931213 0
vt 0.11276513338089 0.54374527931213 0
vt 0.11276513338089 0.51874530315399 0
vt 0.0303558036685 0.64334696531296 0
vt 0.03654394298792 0.63664382696152 0
vt 0.03538490086794 0.63463634252548 0
vt 0.03147216886282 0.63463634252548 0
vt 0.03091398626566 0.63463634252548 0
vt 0.46556222438812 0.25889623165131 0
vt 0.42728865146637 0.317387342453 0
vt 0.02784124016762 0.63899159431458 0
vt 0.03788380324841 0.6390186548233 0
vt 0.41904130578041 0.38173913955688 0
# 45 texture coordinates

o wrench03_1
usemtl Mat
f 23/14/23 53/14/23 36/15/24 24/15/24
f 24/15/24 36/15/24 54/16/25 47/16/25
f 47/16/25 54/16/25 55/17/26 25/17/26
f 25/17/26 55/17/26 56/18/27 26/18/27
f 26/18/27 56/18/27 37/19/28 27/19/28
f 27/19/28 37/19/28 57/20/29 28/20/29
f 28/21/29 57/21/29 38/22/30 29/22/30
f 29/22/30 38/22/30 58/23/31 30/23/31
f 30/23/31 58/23/31 59/24/32 48/24/32
f 48/24/32 59/24/32 39/25/33 49/25/33
f 49/25/33 39/25/33 40/26/34 50/26/34
f 50/26/34 40/26/34 41/27/35 31/27/35
f 31/28/35 41/28/35 60/29/36 32/29/36
f 32/29/36 60/29/36 42/30/37 51/30/37
f 51/30/37 42/30/37 43/31/38 52/31/38
f 52/31/38 43/31/38 44/32/39 33/32/39
f 33/33/40 44/34/40 45/35/41 34/36/41
f 34/33/41 45/34/41 46/35/42 35/36/42
f 35/33/42 46/34/42 53/35/43 23/36/43
f 32/29/11 51/30/11 34/37/11 27/19/11
f 51/30/11 52/31/11 33/32/11 34/37/11
f 35/38/11 24/15/11 47/16/11 25/17/11
f 34/37/11 26/18/11 27/19/11
f 34/37/11 35/38/11 25/17/11 26/18/11
f 35/38/11 23/14/11 24/15/11
f 27/19/11 28/20/11 31/28/11 32/29/11
f 63/41/11 65/42/11 49/25/11 50/26/11
f 70/43/11 28/21/11 29/22/11 68/44/11
f 63/45/44 64/46/44 66/47/45 65/48/45
f 31/27/11 28/21/11 70/43/11 71/49/11
f 63/45/44 71/46/46 72/47/46 64/48/44
f 68/44/11 29/22/11 30/23/11 69/50/11
f 69/51/11 30/23/11 48/24/11 65/52/11
f 68/45/47 69/46/48 62/47/48 67/48/47
f 50/26/11 31/27/11 71/49/11 63/41/11
f 39/25/13 59/24/13 66/53/13
f 36/15/13 53/14/13 46/38/13
f 39/25/13 66/42/13 64/56/13 40/26/13
f 59/24/13 58/23/13 62/51/13 66/52/13
f 72/45/49 71/46/49 70/47/49 61/48/49
f 58/23/13 38/22/13 67/57/13 62/50/13
f 48/24/11 49/25/11 65/53/11
f 66/45/50 62/46/50 69/47/50 65/48/50
f 67/45/47 61/46/51 70/47/51 68/48/47
f 72/49/13 41/27/13 40/26/13 64/56/13
f 38/22/13 57/21/13 61/43/13 67/57/13
f 45/37/13 56/18/13 55/17/13 46/38/13
f 41/28/13 57/20/13 37/19/13 60/29/13
f 61/43/13 57/21/13 41/27/13 72/49/13
f 37/19/13 56/18/13 45/37/13
f 60/29/13 37/19/13 45/37/13 42/30/13
f 46/38/13 55/17/13 54/16/13 36/15/13
f 42/30/13 45/37/13 44/32/13 43/31/13

# 0 vertex

# 0 normal

# 0 texture coordinate

o wrench03_2
usemtl Mat
f 14/1/1 3/1/1 9/2/2 1/2/2
f 1/2/2 9/2/2 10/3/3 2/3/3
f 19/4/4 22/4/4 21/5/5 20/5/5
f 4/6/6 8/6/6 11/7/7 5/7/7
f 5/7/7 11/7/7 12/8/8 6/8/8
f 6/8/8 12/8/8 13/9/9 7/9/9
f 7/9/9 13/9/9 3/1/10 14/1/10
f 7/9/11 14/1/11 1/2/11 6/8/11
f 1/2/11 2/3/11 4/6/11 5/7/11
f 1/2/11 5/7/11 6/8/11
f 12/8/13 11/7/13 9/2/13
f 9/2/13 11/7/13 8/6/13 10/3/13
f 9/2/13 3/1/13 13/9/13 12/8/13
f 2/3/14 15/11/14 16/12/15 4/6/16
f 4/6/16 16/12/15 17/12/17 8/6/18
f 8/6/18 17/12/17 18/13/19 10/3/19
f 10/3/19 18/13/19 15/11/14 2/3/14
f 15/11/20 19/4/20 20/5/20 16/12/20
f 16/12/15 20/5/5 21/5/5 17/12/17
f 17/12/21 21/5/21 22/4/21 18/13/21
f 18/13/22 22/4/22 19/4/22 15/11/22

# 0 vertex

# 0 normal

# 0 texture coordinate

o wrench03_3
usemtl Mat
f 23/14/23 53/14/23 36/15/24 24/15/24
f 24/15/24 36/15/24 54/16/25 47/16/25
f 47/16/25 54/16/25 55/17/26 25/17/26
f 25/17/26 55/17/26 56/18/27 26/18/27
f 26/18/27 56/18/27 37/19/28 27/19/28
f 27/19/28 37/19/28 57/20/29 28/20/29
f 28/21/29 57/21/29 38/22/30 29/22/30
f 29/22/30 38/22/30 58/23/31 30/23/31
f 30/23/31 58/23/31 59/24/32 48/24/32
f 48/24/32 59/24/32 39/25/33 49/25/33
f 49/25/33 39/25/33 40/26/34 50/26/34
f 50/26/34 40/26/34 41/27/35 31/27/35
f 31/28/35 41/28/35 60/29/36 32/29/36
f 32/29/36 60/29/36 42/30/37 51/30/37
f 51/30/37 42/30/37 43/31/38 52/31/38
f 52/31/38 43/31/38 44/32/39 33/32/39
f 33/33/40 44/34/40 45/35/41 34/36/41
f 34/33/41 45/34/41 46/35/42 35/36/42
f 35/33/42 46/34/42 53/35/43 23/36/43
f 32/29/11 51/30/11 34/37/11 27/19/11
f 51/30/11 52/31/11 33/32/11 34/37/11
f 35/38/11 24/15/11 47/16/11 25/17/11
f 34/37/11 26/18/11 27/19/11
f 34/37/11 35/38/11 25/17/11 26/18/11
f 35/38/11 23/14/11 24/15/11
f 27/19/11 28/20/11 31/28/11 32/29/11
f 63/41/11 65/42/11 49/25/11 50/26/11
f 70/43/11 28/21/11 29/22/11 68/44/11
f 63/45/44 64/46/44 66/47/45 65/48/45
f 31/27/11 28/21/11 70/43/11 71/49/11
f 63/45/44 71/46/46 72/47/46 64/48/44
f 68/44/11 29/22/11 30/23/11 69/50/11
f 69/51/11 30/23/11 48/24/11 65/52/11
f 68/45/47 69/46/48 62/47/48 67/48/47
f 50/26/11 31/27/11 71/49/11 63/41/11
f 39/25/13 59/24/13 66/53/13
f 36/15/13 53/14/13 46/38/13
f 39/25/13 66/42/13 64/56/13 40/26/13
f 59/24/13 58/23/13 62/51/13 66/52/13
f 72/45/49 71/46/49 70/47/49 61/48/49
f 58/23/13 38/22/13 67/57/13 62/50/13
f 48/24/11 49/25/11 65/53/11
f 66/45/50 62/46/50 69/47/50 65/48/50
f 67/45/47 61/46/51 70/47/51 68/48/47
f 72/49/13 41/27/13 40/26/13 64/56/13
f 38/22/13 57/21/13 61/43/13 67/57/13
f 45/37/13 56/18/13 55/17/13 46/38/13
f 41/28/13 57/20/13 37/19/13 60/29/13
f 61/43/13 57/21/13 41/27/13 72/49/13
f 37/19/13 56/18/13 45/37/13
f 60/29/13 37/19/13 45/37/13 42/30/13
f 46/38/13 55/17/13 54/16/13 36/15/13
f 42/30/13 45/37/13 44/32/13 43/31/13

