<?xml version="1.0" encoding="UTF-8"?>
<svg id="Layer_2" data-name="Layer 2" xmlns="http://www.w3.org/2000/svg" viewBox="0 0 96 96">
  <defs>
    <style>
      .cls-1 {
        fill: #fff;
      }

      .cls-2 {
        fill: #cef;
      }

      .cls-3 {
        opacity: 0;
      }

      .cls-4 {
        fill: #476475;
      }

      .cls-5 {
        fill: #96dbff;
      }

      .cls-6 {
        fill: #1a1a1a;
      }
    </style>
  </defs>
  <g id="Exports">
    <g>
      <rect class="cls-3" width="96" height="96"/>
      <g>
        <g>
          <g>
            <path class="cls-2" d="M48,69.15c-10.93,0-16.01-6.28-16.01-19.76,0-14.32,5.84-22.54,16.01-22.54s16.01,8.21,16.01,22.54c0,13.48-5.09,19.76-16.01,19.76Z"/>
            <path class="cls-6" d="M48,28.85c9.27,0,14.01,7.66,14.01,20.53s-4.74,17.76-14.01,17.76-14.01-4.89-14.01-17.76,4.74-20.53,14.01-20.53m0-4c-5.42,0-18.01,2.39-18.01,24.53,0,7.33,1.46,12.64,4.45,16.26,3.02,3.65,7.59,5.5,13.56,5.5s10.54-1.85,13.56-5.5c2.99-3.61,4.45-8.93,4.45-16.26,0-22.14-12.6-24.53-18.01-24.53h0Z"/>
          </g>
          <ellipse class="cls-1" cx="48" cy="44.81" rx="10.19" ry="13.74"/>
          <path class="cls-5" d="M48,36.62c-1.54,0-2.78,1.25-2.78,2.78v5.81c0,1.54,1.25,2.78,2.78,2.78s2.78-1.25,2.78-2.78v-5.81c0-1.54-1.25-2.78-2.78-2.78Z"/>
        </g>
        <g>
          <path class="cls-1" d="M44.69,20.49c-1.19,0-2.25-.61-2.84-1.64-.59-1.03-.59-2.26,0-3.28l3.31-5.73c.59-1.03,1.66-1.64,2.84-1.64s2.25,.61,2.84,1.64l3.31,5.73c.59,1.03,.59,2.26,0,3.29-.59,1.03-1.66,1.64-2.84,1.64h-6.62Z"/>
          <path class="cls-4" d="M48,9.68c.6,0,1.2,.3,1.55,.89l3.31,5.73c.69,1.19-.17,2.68-1.55,2.68h-6.62c-1.37,0-2.23-1.49-1.55-2.68l3.31-5.73c.34-.59,.94-.89,1.55-.89m0-3c-1.7,0-3.29,.92-4.14,2.39l-3.31,5.73c-.85,1.48-.85,3.31,0,4.78,.85,1.48,2.44,2.39,4.14,2.39h6.62c1.7,0,3.29-.92,4.14-2.39,.85-1.48,.85-3.31,0-4.78l-3.31-5.73c-.85-1.48-2.44-2.39-4.14-2.39h0Z"/>
        </g>
        <g>
          <path class="cls-1" d="M48,87.82c-1.19,0-2.25-.61-2.84-1.64l-3.31-5.73c-.59-1.03-.59-2.26,0-3.28,.59-1.03,1.66-1.64,2.84-1.64h6.62c1.19,0,2.25,.61,2.84,1.64,.59,1.03,.59,2.26,0,3.28l-3.31,5.73c-.59,1.03-1.66,1.64-2.84,1.64Z"/>
          <path class="cls-4" d="M51.31,77.01c1.37,0,2.23,1.49,1.55,2.68l-3.31,5.73c-.34,.59-.94,.89-1.55,.89s-1.2-.3-1.55-.89l-3.31-5.73c-.69-1.19,.17-2.68,1.55-2.68h6.62m0-3h-6.62c-1.7,0-3.29,.92-4.14,2.39-.85,1.48-.85,3.31,0,4.78l3.31,5.73c.85,1.48,2.44,2.39,4.14,2.39s3.29-.92,4.14-2.39l3.31-5.73c.85-1.48,.85-3.31,0-4.78-.85-1.48-2.44-2.39-4.14-2.39h0Z"/>
        </g>
      </g>
    </g>
  </g>
</svg>