<?xml version="1.0" encoding="UTF-8"?>
<svg id="Layer_2" data-name="Layer 2" xmlns="http://www.w3.org/2000/svg" viewBox="0 0 96 96">
  <defs>
    <style>
      .cls-1 {
        fill: #fff;
      }

      .cls-2 {
        opacity: 0;
      }
    </style>
  </defs>
  <g id="Exports">
    <g>
      <rect class="cls-2" width="96" height="96"/>
      <g>
        <g>
          <path class="cls-1" d="M48,28.85c9.27,0,14.01,7.66,14.01,20.53s-4.74,17.76-14.01,17.76-14.01-4.89-14.01-17.76,4.74-20.53,14.01-20.53m0-4c-5.42,0-18.01,2.39-18.01,24.53,0,7.33,1.46,12.64,4.45,16.26,3.02,3.65,7.59,5.5,13.56,5.5s10.54-1.85,13.56-5.5c2.99-3.61,4.45-8.93,4.45-16.26,0-22.14-12.6-24.53-18.01-24.53h0Z"/>
          <path class="cls-1" d="M48,36.62c-1.54,0-2.78,1.25-2.78,2.78v5.81c0,1.54,1.25,2.78,2.78,2.78s2.78-1.25,2.78-2.78v-5.81c0-1.54-1.25-2.78-2.78-2.78Z"/>
        </g>
        <path class="cls-1" d="M48,9.68c.6,0,1.2,.3,1.55,.89l3.31,5.73c.69,1.19-.17,2.68-1.55,2.68h-6.62c-1.37,0-2.23-1.49-1.55-2.68l3.31-5.73c.34-.59,.94-.89,1.55-.89m0-3c-1.7,0-3.29,.92-4.14,2.39l-3.31,5.73c-.85,1.48-.85,3.31,0,4.78,.85,1.48,2.44,2.39,4.14,2.39h6.62c1.7,0,3.29-.92,4.14-2.39,.85-1.48,.85-3.31,0-4.78l-3.31-5.73c-.85-1.48-2.44-2.39-4.14-2.39h0Z"/>
      </g>
    </g>
  </g>
</svg>