<?xml version="1.0" encoding="UTF-8"?>
<svg id="Layer_2" data-name="Layer 2" xmlns="http://www.w3.org/2000/svg" viewBox="0 0 96 96">
  <defs>
    <style>
      .cls-1 {
        fill: #fff;
      }

      .cls-2 {
        opacity: 0;
      }
    </style>
  </defs>
  <g id="Exports">
    <g>
      <rect class="cls-2" width="96" height="96"/>
      <g>
        <g>
          <path class="cls-1" d="M48,28.85c9.27,0,14.01,7.66,14.01,20.53s-4.74,17.76-14.01,17.76-14.01-4.89-14.01-17.76,4.74-20.53,14.01-20.53m0-4c-5.42,0-18.01,2.39-18.01,24.53,0,7.33,1.46,12.64,4.45,16.26,3.02,3.65,7.59,5.5,13.56,5.5s10.54-1.85,13.56-5.5c2.99-3.61,4.45-8.93,4.45-16.26,0-22.14-12.6-24.53-18.01-24.53h0Z"/>
          <path class="cls-1" d="M48,36.62c-1.54,0-2.78,1.25-2.78,2.78v5.81c0,1.54,1.25,2.78,2.78,2.78s2.78-1.25,2.78-2.78v-5.81c0-1.54-1.25-2.78-2.78-2.78Z"/>
        </g>
        <path class="cls-1" d="M22.2,42.9c.93,0,1.79,.75,1.79,1.79v6.62c0,1.04-.86,1.79-1.79,1.79-.3,0-.6-.08-.89-.24l-5.73-3.31c-1.19-.69-1.19-2.4,0-3.09l5.73-3.31c.29-.17,.59-.24,.89-.24m0-3c-.83,0-1.66,.22-2.39,.64l-5.73,3.31c-1.48,.85-2.39,2.44-2.39,4.14s.92,3.29,2.39,4.14l5.73,3.31c.73,.42,1.56,.64,2.39,.64,2.64,0,4.79-2.15,4.79-4.79v-6.62c0-2.64-2.15-4.79-4.79-4.79h0Z"/>
        <path class="cls-1" d="M73.8,42.9c.3,0,.6,.08,.89,.24l5.73,3.31c1.19,.69,1.19,2.4,0,3.09l-5.73,3.31c-.29,.17-.59,.24-.89,.24-.93,0-1.79-.75-1.79-1.79v-6.62c0-1.04,.86-1.79,1.79-1.79m0-3c-2.64,0-4.79,2.15-4.79,4.79v6.62c0,2.64,2.15,4.79,4.79,4.79,.83,0,1.66-.22,2.39-.64l5.73-3.31c1.48-.85,2.39-2.44,2.39-4.14s-.92-3.29-2.39-4.14l-5.73-3.31c-.73-.42-1.56-.64-2.39-.64h0Z"/>
      </g>
    </g>
  </g>
</svg>