<?xml version="1.0" encoding="UTF-8"?>
<svg id="Layer_2" data-name="Layer 2" xmlns="http://www.w3.org/2000/svg" viewBox="0 0 96 96">
  <defs>
    <style>
      .cls-1 {
        fill: #fff;
      }

      .cls-2 {
        opacity: 0;
      }
    </style>
  </defs>
  <g id="Exports">
    <g>
      <rect class="cls-2" width="96" height="96"/>
      <g>
        <path class="cls-1" d="M48,20.5c-13.32,0-20.13,11-20.13,29.49s6.81,25.51,20.13,25.51,20.13-7.02,20.13-25.51-6.81-29.49-20.13-29.49Zm0,51c-9.68,0-16.13-3.66-16.13-21.51,0-11.63,2.8-25.49,16.13-25.49s16.13,13.86,16.13,25.49c0,17.85-6.45,21.51-16.13,21.51Z"/>
        <path class="cls-1" d="M48,48c2.21,0,4-1.79,4-4v-8.35c0-2.21-1.79-4-4-4s-4,1.79-4,4v8.35c0,2.21,1.79,4,4,4Z"/>
        <path class="cls-1" d="M51.31,51.07h-6.62c-1.7,0-3.29,.92-4.14,2.39-.85,1.48-.85,3.31,0,4.78l3.31,5.73c.85,1.48,2.44,2.39,4.14,2.39s3.29-.92,4.14-2.39l3.31-5.73c.85-1.48,.85-3.31,0-4.78-.85-1.48-2.44-2.39-4.14-2.39Zm1.55,5.68l-3.31,5.73c-.34,.59-.94,.89-1.55,.89s-1.2-.3-1.55-.89l-3.31-5.73c-.69-1.19,.17-2.68,1.55-2.68h6.62c1.37,0,2.23,1.49,1.55,2.68Z"/>
      </g>
    </g>
  </g>
</svg>